<mxfile host="Electron" modified="2023-04-26T23:08:14.423Z" agent="Mozilla/5.0 (Windows NT 10.0; Win64; x64) AppleWebKit/537.36 (KHTML, like Gecko) draw.io/21.2.1 Chrome/112.0.5615.87 Electron/24.1.2 Safari/537.36" etag="zIcLIy-10A2xAasIvy01" version="21.2.1" type="device">
  <diagram name="Page-1" id="v3PoRTx4dUEmTcM-OZQ-">
    <mxGraphModel dx="1573" dy="2335" grid="1" gridSize="10" guides="1" tooltips="1" connect="1" arrows="1" fold="1" page="1" pageScale="1" pageWidth="850" pageHeight="1100" math="0" shadow="0">
      <root>
        <mxCell id="0" />
        <mxCell id="1" parent="0" />
        <mxCell id="3sPB93pp8kDnpxtO9J0G-1" value="" style="shape=image;aspect=fixed;image=data:image/png,iVBORw0KGgoAAAANSUhEUgAAA4QAAAPoCAMAAACxpsAoAAAAAXNSR0IArs4c6QAAAARnQU1BAACxjwv8YQUAAAMAUExURQAAAAEBAQgICAoKChMTExgYGBoaGh8fHyMjIykpKSoqKisrKy0tLS4uLi8vLzIyMjMzMzQ0NDU1NTY2Njc3Nzg4ODk5OTo6Ojs7Ozw8PD09PT4+Pj8/P0BAQEFBQUJCQkNDQ0REREVFRUZGRkdHR0hISElJSUpKSktLS0xMTE1NTU5OTk9PT1BQUFFRUVJSUlNTU1RUVFVVVVZWVldXV1hYWFlZWVpaWltbW1xcXF1dXV5eXl9fX2BgYGFhYWJiYmNjY2RkZGVlZWZmZmdnZ2hoaGlpaWpqamtra2xsbG1tbW5ubm9vb3BwcHFxcXJycnNzc3R0dHV1dXZ2dnd3d3h4eHl5eXp6ent7e3x8fH19fX5+fn9/f4CAgIGBgYKCgoODg4SEhIWFhYaGhoeHh4iIiImJiYqKiouLi4yMjI2NjY6Ojo+Pj5CQkJGRkZKSkpOTk5SUlJWVlZaWlpeXl5iYmJmZmZqampubm5ycnJ2dnZ6enp+fn6CgoKGhoaKioqOjo6SkpKWlpaampqenp6ioqKmpqaqqqqurq6ysrK2tra6urq+vr7CwsLGxsbKysrOzs7S0tLW1tba2tre3t7i4uLm5ubq6uru7u7y8vL29vb6+vr+/v8DAwMHBwcLCwsPDw8TExMXFxcbGxsfHx8jIyMnJycrKysvLy8zMzM3Nzc7Ozs/Pz9DQ0NHR0dLS0tPT09TU1NXV1dbW1tfX19jY2NnZ2dra2tvb29zc3N3d3d7e3t/f3+Dg4OHh4eLi4uPj4+Tk5OXl5ebm5ufn5+jo6Onp6erq6uvr6+zs7O3t7e7u7u/v7/Dw8PHx8fLy8vPz8/T09PX19fb29vf39/j4+Pn5+fr6+vv7+/z8/P39/f7+/v///wAAAAAAAAAAAAAAAAAAAAAAAAAAAAAAAAAAAAAAAAAAAAAAAAAAAAAAAAAAAAAAAAAAAAAAAAAAAAAAAAAAAAAAAAAAAAAAAAAAAAAAAAAAAAAAAAAAAAAAAAAAAAAAAAAAAAAAAAAAALUBZQkAAAAJcEhZcwAADsMAAA7DAcdvqGQAAAAYdEVYdFNvZnR3YXJlAHBhaW50Lm5ldCA0LjAuNvyMY98AAFylSURBVHhe7b35wxTF2badvF/iF9/X77uTmMQYnsQY45LkSYwxJibxSRoFN8AVRQ2oCMgmq6waVEBUQFxQFDcUwQUQXEBcQHABcUFFREGtP+atrrp6pqfunmu6r66ZHovz+IGpqu455qamzp7e+1s9AADvKHrNA0IIQBtACAGoGIQQgIpBCAGoGIQQgIpBCAGoGIQQgIpBCAGoGIQQgIpBCAGoGIQQgIpBCAGoGISwGc/u3LnzZCoD0EYQwiYcpzQLqdJu5nyy+70db259dfPmtcvnnU2N4GABIWzCjDiERXqnDHPMhyXsuIyawcEBQtiEXUq9ptS1VGszjSFUahS1g4MChDCbfkq9fY1SW6mawSx6LcY1P6ZCAzqE7/9Sc9RxJ/ZbFqfw7zQBHAwghNnoKIz7wWdK9aN6L7avpUIxpqisFMYhpGJPzykblXqUyuBgACHM5HD9a3RKzxKlHqIGl+1qHZWKMUVlpbAhhD2zlPqciuBgACHMZIRSO3t6ztJR/Cm1NLJFyUOYkcLGEJ6u5zmGyuAgACHM5BWl5uqX7UrNsA2N6MklQri/VwobQzhYqc+oCA4GOhTC4+n1G8JJOir/o19nKPWhbWlAb7SVCaH6zE1hYwjvV+p+KoKDgc6EcJ76B5W+GcxVakv8+t86MReYljTPx0EqE0L1sZPChhBO1jPESwBwsNCREM7Tw+qfVC7P8ZnQRD/ov3emKbyg1BpTSLEujlG5EKr3G1MYh3DC6JEx01fryThOeFDRiRDGGVQqolppbjE6hzE00Qvna2EfU7pCl35tSjWeMZ9XMoRqR0MKdQhTHLiEmsHBQQdCaDPY3hSOoEl+0Dl70Za+r9232SIR/1AZyoVQbU+nsDGE6r2rqR0cFLQ/hEkG25nCK2mCH36ujRNOtqzXZWo2PGE+L6ZkCBtSGK+OPvrIA0uX3HH7HXoNOFkZBgcHbQ/hbWbEWdqVwsup2RPxnpE0Q6ld81dq0pQNoUqdpt2wY6bfNj3R838JdDPtDuEiO+CI9qTQ90UHn5A34TVqj6mnsGwIU9FuDGHPj5+lnbPg4KDNIbybRlyCtxTeREKN7wyepp23xsyPeU7XTqQpMbUUlgxhw2ZfYwh7btbTj6MyCJ/2hvB+O+BSeEvhDST0nsGeB5XaQUVNvIF4H5UNSQrLhXAk1S1OCH+nZ/B3SAd0O20N4UN2wDXgLYUzrc//BbBamj5XbYWuU9FCKSwVQueIihPCgXqOv1EZhE87Qzh+RxY0sTzXx6PZfwaHa+sJVI4ZpOujqWyxKSwTwrFUS3BCOFfP8jsqg/Bp8zZhW5nUjgzGJ22vp6Llk8aEaEwKS4TQzaATwnij9Dkqg4OAb3IIe8a3IYO/0QloPFauE+Ke+hqnUB7CXhlsCOFfpryt5xlENXAQ8I0OYTu4Qyfgh1S2/F63rKBygk6hOIS9M2hybjiw/4B5nUgTwMEAQuigE/AAFRM26DYq1jhVHMKMDNZDaPlAdv8a8A0FIXQ44ogjqFTjJxoq1jlNeI+ZrAymQ7h323K/J+GBrgch7ArinBuoDg4mEEIAKgYhBKBiEEIAKgYhBKBiEEIAKgYhBKBiEEIAKgYhBKBiEEIAKgYhBKBiEEIAvkEghABUDEIIQMUghABUDEIIQMUghABUDEIIQMUghABUDEIIQMUghABUTLkQ9jmqT+P9PH1wzBlXXzdr9tjLz/kTNbSbw086f+SkG2aOv/LC9KOaQMwpp18wbPyUkZec/Y25hf/h/xz477EzZ0+45tJ+h1NTt1MmhDPeie/n9861VPXB4YPuMFLL24vb/6T3M2bHD+5N+PCxsT+gCX757YyVb+z8cPe7bz49v+xjYX4wa+myB5px3//QXB74w4gHP6R+0ex9ft4A+ag+o/mfrFlmmf8XmlvMeTc/9xX9vTHP/ce5zXp3Ig/hmZvof7qRGsoz6LH95Kzxzvh2Ls6OuWkHfU6dD6//KU31yPG7yB5zLDUKeZw02WyluUpz4VNkTLH/FppYmN79nMUHNLeMw0e9Qp4Ua74Bz0eWhvAnt9J/0l8Ih7xEwkY+upime+e//vMlfUYj2/vRDP5oeLDqn6lRxtFkacbxNF85Rr5OOof0A+YK8Hd6eytOpfklDNlNEodny/V3BxCGcHBqpdFPCP/yLOl606YbyI/5lPy9mUKz+KI/eS2nUKuMv5ClGafRfGX4ee8nwRIbaI6C9KO3t2IAzV+cHzU+xL2BcTRPtyIK4TFL6X9n2EStpbj4a7JlsZBm8soCkmcynGbyRPzkizrltnxahfBkmq8E5+0kV2+Ej6LsS29vxdk0f3FWkSGTxkdydR2SEF6zh/5vlpepuQxHkasJE2g2j5xD6iacS7N5YSRJib9Ss4xWISy/RRs/VLgZb9M8BTmZ3t4K8U6r+0gQs/f1jRte3koVy2CarTspHsKTnqD/WIKPEA4mV8wXLz5+111Pfk41y1k0nz/+Q2altt45tN8fjz2577Q11BDj4z+V0Ce1jzGmzIZPyxA+RLPJOZtMMa+MP+ekI3XbT0+6fOHmuEG67fGM0bVE+twOemK55p3p1L0/PWvxF9Sm/x+2rUspHMLJ9N+qs5mmlGEsudSmSclO5WPv3E5tmlXU6I97yHzP6dSg6Z/atB9JbR6YZ43J3mRPIdwzXjOOGDtm9KhRI4YPv2pY6Z3Jf67vob77DGqz/G7qRvH2+THDenP18JGjxoy9bsLkKS/SB0qfZXxM7W+eSi2GPkuo1fv2hV8KhjBKbd28TK8+ljLjreqRxr0KM21rjPefQrtZO8fZl3iLaY15i1rKcyoZa3tnPIWQ6r6p7SDbdT61pOj1iDk/0CdmPucxD/FTYA3unvTaCPJ3HK0NFAth6pl7208dSiUfIRwei1b1OjSQfETvh3yWZqGWPvxHqtSpH0s4iVpKs9L6HqgNtXJH65MQfkp1z1xPevXQL6ml/Uygj1RHUUNR9tL7J1O9zgM0xdORm/ZQKIS1zlLq8npCfIRQb7i/M4TKaWbTZ6gPqcEbV6q3LqBimp98TB+ofJ0INIR8x9dC+HeaIqO9Ifwz2dVKaugEycrkIqoXJdnJ9ibVU/wu2evezeujhUJYO4fixriWhPBVM60ks6Znb5PXjkd6P/+oyZmFtU38pdRQFtqynVlf6ermECabyq/2oYYOcDF9png9PTnaNI/qaZLdiGbIdimFQmj2jym1wq7FJSF8zdTaRO3Ht1OHek6hz/P1UzDd2nbpoi35CuFeqnul9kPo4WhjbpIdcE9SvTDJiXwDqZ6G9jaoJVTvRgqF0Jyat/0iqnUkhL+jD8lY3W8TyUHQF6lejv8m22W6TMVuDmHyQ3gz1TvB3+gzVdbmQS6SXYRZa0uX07QVVO9GCoUw3jU6jcr1EL5O9fawkT5FfOpwUZLlsp8zoen8r2fjsi12cwj7kPuzX1BDJ0g2crZQvTgfkCHrSrTzaZqvrYt2UCiEoz689b+pqElCKO+8PDxJn3IH1dtOchr5C1QvxbkkM1s7VPYUws+o7hOzk1rj+9xZjtrJUtLjE/XlZuqQb43kv3Qr1buRQiFspDMhfJM+ZQ7V28679IFPUb0U9Dtud/vZcjeH8Glyn0D1TpCceL1Pfr7dWlKMoHqaZKfNlVTvRro+hMn5Th1bOCeXN91J9TLQiUBf2pqtdHEIjyH1Oqp3BPrMzF2bOUlyvIzqaZJfyeOo3o14CKG3y0gz2Uaf0qnjPKfR5/n4wKNoJ894W7WVLg7hhaS+juqdoHYaZImTI64gRcaemQtoytNU70o8hPANqreHffQpXi9rYJhGn1fyqj/D7daUrCrYWheHMDlprz/VO0FyUecjVJfwW3KoZ6ihTnISXrJLvyvp9hDWNts7deDqDfo84dWraf5JquQiOap2bwjpxOB2bG024xL7kSUXsrXrW+dTQ0JynuXzVO9OmBC2uuNREsJtVG8LybVt+6nebqbS5/k4OYB2czxKVc8h3Ed1j9DmsIflT2622I8seWV4bRvCSWFtXTeihu6ECWGrmxkmIdxO9bZwM32I+GyKYiSbED5uF5D0T+2sZKp3bQhPJPNiqneAWnqydmwW4AbSKPXAz6lJM4va2nWDFF90ewjpTLl2XFufwQD6NB+bRYfTDcbqx1ZsvXtDmCyBHqZ6zJEn/PFXbbzfXXKg/qOyN5pMjlIo9XZyBdbPaldQdHCpIqLLQ1i7CUVH7j1bv9p+IrWUgBbOH1NVYxt8hfDzJzds2fXuh5998ubG1Q+MLee0JOeuX2VqRw26cc0ue33Dp+88OMrblV1paneO+w81iPnlq2TS3P+buGXA21RV95o5uhgPIcy4gMQbD9FndOCko6On1O8gV3pM9PScRKr4pFGCWjyF0OGzVaVvDZlcGnuR/hkfupoqNd5sw0Gi2pXvv6UGOb9Pzm+Mmfuz4++iolI30RzdS3eH8F/0Eepf1OCbqH/MwCHX3Fq7+YRmFE0tAy0+0rvlbEubQqjZKj/xy5DsYzz16LmfUbGBLcNoRm+QWN1P9TL85GGSxdRv0bG/m0+VITyE0N+NIHqRLI4fo7pv0t9bjRWNd1aRkWxfpc8ppqa2hVCpl/9JM4l4jCz30mtvPO/gqF3F76PHe3omkS3Nmt43T+g+PIRQeBe8HCQXpZe8K0tTjiB9ip23+3mYA92QvWFzxDaVDeGfyJJNmR1YOe6IdjvN6ofkLnTrqV6Wf9R3zxAN933qWro5hH2SBxgsoAbf/J78dd66a4SPO1jXrkWmqoXaSobweLI0YTrNJiD7MQSN+DyF9zJyqqHUUJ6ryEgs/Rm1dzceQvgO1b2TbFt/Kr3/Tyuyx/Om8alDTTJ+TXdNHUN1i20rG8Ke2Z+rz9564YmlC26efcP8O5cltwtMkN8bp/F+uerD5WOH9PvTqWdfsTi5kiXGyzLKklyL+y7VPTDUfbRBZw5tlaSLQ5hcE62uoAbvHF6/O2wDn5Y9QnGn9TjrCLaxdAh73XjwxGsbHqAkfpxNchFXzDuz0/eEG1Bfz/NymaUhOauvzI93I/+Tvn0z8br4ev3O0b0h/ENy3zPpPbhyULuZm8sbpU7fPoMszj5dai0fwt4cm9yXQrOa2gpTf7rBs71G7lyakn3lrIgVJFTHUENZmnybD/6apnctHkIofEZIK5LbDL/WzgcUHvVbw0n/6HfJzc+mn0nzifzRJLXTN9xbRdnWtoSwp2dg/a8/j5qKkhyX+DTrEE3ttsh3U0NZkosX1V3UUJLT6w8n3Dx4enq1dFenrsCRwoTw+/TajCSEO6nul9pdeL0teVvy/cHJuQGaA/KNn+SOCu5NHKm5PSHsOaeWwrXUUpRP6P2ZB2UPr53K4GmhWLtrtp+tzIlk0z8K8X6eH09JP7WokxdICmBC2Iq2hrB2+8+SB6AL8qfl9LFKvfkraivKEe9ZQa+Dara5XSGsZV8p4W2akiMG2QdpxtDUkjcQr5EsM/xcblt/WN8C2mL+BT0CxECXVXcpHkLocedWjSvJ7WtdJT/J/0qpe6ilKHThx+dUrWPb2xbCnnXkV5dSQ0GSR3pnHzr/NU31dAfY2jVjXp5aVsvgG6nNiL89R40aj8/38Y+HEMb3tfVM7Z7MFdyVoHaZqfAitOSMlt6PU6EJbQth7S8XbrYlt2M5h+oOL9Dk26hejuQ5pF5O/689pffOH1OLhe68HOPx0Ip3ujKEZ5FZbT2aWjpJbU1YdscFOvkrY1e+ndC+EP6S/NKNwufp7RlPY4pJDtumr3QS82+SeTmQN4xcve9reEHt0SJeHtbQJkqEMOlH7yE8LXnIzsce7vMiIDkotr/V/uEsknPOM+7uRVPaFsLa7k3h/e+SYwaXUN0hmWxuZFyWZN/3fg/PvDgqOV07YwPib7VDwT7Oym8TJUKY3OPqPar74hTasVHisHM5amcJDKKGItxq37p786aNL76wYcNza9c++/RTq1fF2ClKPfHog0vvuusu/7vskoef7KZ6QZKfutFUd0i20308FDYil5d12+T44GdZ+/Nr90pox64LT3RfCE9Kzhjt9cTHTvHD5BdlEjUUodd1eM25nN7ijdo1dFQvSHKPiCYPMLqIJvvYiqvthP4zNZTgiGTF6UJqaCR+EKWhLzV0HyVCmPxgvE91P/zhLdL6H6O5SfaqSZ5/kb4usQVeNq7SzCex8GGOyTGOrHvoapKnOni4D1TtpN3HqaEMyW/dS1R3OIEmd/GNZkqEMDkJ/gOqe+G3yS0HlfcrSPNT5nr+ZBdjDvw89ynFfSQWPifrTHp7k03KZEech+cb1Q7hSVb4XZJdo/VHFTWS3HrU+zLPG10WwuNeI2ml29F0017RQ2jqJ0+1xMvTLtIkD8/pfQ/cXNQeQ5d9AdA4murhSX90kYmfXZbJxRhnUd1lBk3v5J0ci+EhhB6fZH1McnO1aq/GTG7TNZPqRUguT8+B94cAJhcESh/wn5zplX2uZXJAvPxFD9eRyc8jyZNzDP5KdZdkh1Jb7wpYihIhTK579xfCo2qXlXbyIZW9Sa4MkoyRfpm3Z8lij+/7BdS2tKRLsOT/nb1n5nWa2uwXJz/JKvueH1FDKZIn+DS7R3uyLevr+n3/lAjhpfSf8xbCPsnBo4qfbfyj5GuVnf51TDbHHkdWNfD4GP+PCRpJfvEux2T3aOZTmWq31TiSGsQkA8fTojbZOdrsTP/kavsyT7toLx5CKDwq1YsjaleOVrwJXTu05PmKfrKqv1DdN8kyTPysutpdXrNOkkge67CR6nKSPSXq99RQjuR3tdk5rcl9uNt4XWpJSoQwOVXxI6qX5PDkCZXS/QreSAaz7xNXSduuZ9vUrqKQP081uY4iY03kqOQEsOupQUztQP1yaihJckBpFdVdksdddO8pMyVCOJj+c35C+P1k156Px0C05up/U6E3tTPyfV9FRdo2hfCk2olG8l/a2onQvW94vpimfPFf1CCm1r9nUkNJkr+syTnatfUaXxfw+8dDCFM3ei/B42Rr521M6/xGr7Sl7o2dpval7T+WWnzxFYnLhPDCZk9OOal20a37eLAC1M6cd28KUL/Cq/R2nO56i6/DpGeTr8lDg5IfwmY/lF1At4TwEZKpT6ihvZitn/VZ5zldk0TF/wO6k/OMS4Swj1LbRmdd2n5xsqNefSq8pNdQ2yRwjs7UMvh16cfZ1x74YR954YHaKsBCakhTu7+zt4/zT5eEMHm8v/S0x6LQ3759prMj8bRldoLG/6P4kxP6S4TQbE99fIt7cOOk5PQCTamLyAeRRKnFqSP2R9S/nvIbVslNNPyd41G/wdMKd4/SabWlyhpq6UaKhXDg2OsmTrl++sxZMcnJXR9PnzrpurEW4e2R/kyqBr7ev+/Tjz/cteOtbVtejfF51UH9GWhb5lycbACdOiZ99vVAavVHcgSxRAiTZ6a+NnfQiXTNwI9OG1W7PkPT65K6YjxIGqV2zaARfdKs+pNyyu+3vpZMPk/lTJ2ve2/6KObA2sPRuvn07YIhPIX+Qwyy28uNpnfzeLj0LOGvpLR8snPLC1vebbxvbBtudpp8QIkQJqd3xnz93vZNL71RWxezlH0M2HHpXtjx0uMrXqidUK95t/xmcu28RI/HSfuR0vDp2gXTx105dvqC59KnTTS5MqQ7KBTC+h2tmiIbu8nzeHkG0Nw+2E3OZrTj/lLJiliJEGauMqQo/0tV2/rL4OX/ppnk1HZ7eX1oYO0K0GZ0dQaLhTC5VIZBts2Q2qRh8PmAvORs5Gzev4hm80oS/BIhrAU5k/0lHzptqD2FpxerPayK1A5E+X3YXbJ/ogndncFiIaw/ybYpsosAUzfkYfBx3UuNMzJumZ7wUHtubZMcCi8TwiuZn/An/0AzlWPQNvI18qXkdHaXv5FMfG/UZpxau593b9a16+mWvigUwuRaegbZTa2Si7Z5Su8db+TcR8nr8GCTu42VJtl8KxPCniOmOM9tSbjP266HH6bv2Jlwu5ejprXtjiYHaUtwSfpRvSk2dvbOtRIKhfAH6/e1QHom0u27vkixPxP/5/4dM+Ix55qH/WtneI56Cnr4Zumz8k6d5j6H78Ca2eY57b44dlrtge+G9RPTDzstwXjr+8rD88h78+dZyYH5Gu/M/wdN7GYKhTBE/jhk+tING1/dsuGJpbeObfPNKX9+ahSd6uXsqSP/MXT6gvtXbdz2wpPLbp8YtXpigYAThy1euWHLOxtXLZ032uNyqc+fTx/Y77Q2/L2Wn58++s4Hn1z/6qsbVj1014Sz2vVMPc8c9CEEoGoQQgAqBiEEoGIQQgAqBiEEoGIQQnCw49xuqm27bpvChND3H9Pm/yv0DNAz/JReCd/61qRD+P//r2+l+V8/9Mv/Ji8BfRroGTqr/y7FoXOkQ/g9+isSqNkXh5A2gZp9AT0D9AyO/jvU3DnS/yGEkAF6hqD0CKEc6BmgZ3D0CKEc6BmgZ3D0CKEc6BmgZ3D0CKEc6BmgZ3D0CKEc6BmgZ3D0CKEc6BmgZ3D0CKEc6BmgZ3D0CKEc6BmgZ3D0CKEc6BmgZ3D0CKEc6BmgZ3D0CKEc6BmgZ3D0CKEc6BmgZ3D01YbwyEMaOPRkvxxLXgL6NNAzdFZ/GMWhc6RD6Fw72Sfyi3PjaejTQM/QWX21F/UihAzQMwSlRwjlQM8APYOjRwjlQM8APYOjRwjlQM8APYOjRwjlQM8APYOjRwjlQM8APYOjRwjlQM8APYOjRwjlQM8APYOjRwjlQM8APYOjRwjlQM8APYOjzxfCnxx9tLfnACOEOYGeISh9nhCO2hE/Ef/AixHVy4EQ5gR6hqD0OUL4qziCMeuooRwIYU6gZwhKnyOEYyiDSp1ILaVACHMCPUNQ+hwh3EARVGo6tZQCIcwJ9AxB6VuH8E+UQM0WaioFQpgT6BmC0rcO4SxKYIyPXTMIYU6gZwhK3zqE2yiAMQuorQwIYU6gZwhK3zKEfU36NjxoXj6kxjIghDmBniEofcsQ3m7SN2qQeVEXUGsJEMKcQM8QlL5lCD8y4ftZj3lRD1BrCRDCnEDPEJS+VQgvNNl7tqfnLlPQaSwLQpgT6BmC0rcKod0WvKqn5wxTUFdTuxyEMCfQMwSlbxHCPjZ6cfEzU3raNJcBIcwJ9AxB6VuEcLhJ3pNxcb4pqt+a9hIghDmBniEofYsQPmOCd3lcPNUU1WTTXgKEMCfQMwSl50P4Oxs8W/nQlF+2FTkIYU6gZwhKz4dwisndCluZbSrq77YmBiHMCfQMQen5EL5iYnehrfzBVNTNtiYGIcwJ9AxB6dkQnmZjR7Wed0xtJ9WkIIQ5gZ4hKD0bwrkmdcup1jPRVNW5VBWCEOYEeoag9GwId5nQnU21nl+bqrqbqkIQwpxAzxCUngvhQBs6qmm2mPrnTnQKghDmBHqGoPRcCJeazC2lmma0abCHDcUghDmBniEoPRPCH+83kfsfqmp+ZhrU41SVgRDmBHqGoPRMCIeaxH1BNcNG06R+TVURCGFOoGcISs+EcKUJ3EKqGa4yTWosVUUghDmBniEoffMQHmsD1zD/923b81QVgRDmBHqGoPTNQzje5O1TqhHrTGNjMguCEOYEeoag9M1D+KKJm3OS2hDTqGZTVQJCmBPoGYLSNw3hKTZu7uWDtnU71SQghDmBniEofdMQ3mjS9sFPHJ4yzaofzSUAIcwJ9AxB6ZuG8C2btiYsorkEIIQ5gZ4hKH2zEPantDXhE5pNAEKYE+gZgtI3C+FiSlszBtN8xUEIcwI9Q1D6ZiHcQ2FrxsM0X3EQwpxAzxCUvkkIL6GsNecXNGdhEMKcQM8QlL5JCB82QfvwHxk8YiapkTRnYRDCnEDPEJQ+O4RH2aDNpWoDF9hpa6haGIQwJ9AzBKXPDuEoG7S/ULWRL+zEP1C1KAhhTqBnCEqfHcK1JmZvUc2BHg0zjapFQQhzAj1DUPrMEJ5oYzaDqg70aJjXqFoUhDAn0DMEpc8M4XQbsz9R1eVdO/mfVC0IQpgT6BmC0meG0N7Q6RWq9eIWM1nNp2pBEMKcQM8QlD4rhP+yIWv66Je/2OnvU7UgCGFOoGcISp8VwgU2ZL+nam9etjOcR9ViIIQ5gZ4hKH1WCD8wEdtAtQwmmxnUfVQtBkKYE+gZgtJnhPB8G7HxVM3gt3aOL39K9UIghDmBniEofUYI7RMo1G+omgVd2it6KgVCmBPoGYLSZ4RwpglYw60OXS609wU+h6qFQAhzAj1DUPqsbcLf/P3vp/ahcjNO/Pvf/yq7kAIhzAn0DEHps0LYXhDCnEDPEJQeIZQDPQP0DI4eIZQDPQP0DI4eIZQDPQP0DI4eIZQDPQP0DI4eIZQDPQP0DI4eIZQDPQP0DI4eIZQDPQP0DI4eIZQDPQP0DI4eIZQDPQP0DI4eIZQDPQP0DI4eIZQDPQP0DI4eIZQDPQP0DI4eIZQDPQP0DI4eIZQDPQP0DI4eIZQDPQP0DI4eIZQDPQP0DI6+2hAe9q0Gvt3HL4eSl4A+DfQMndV/l+LQOdIh/B79FQnU7ItDSJtAzb6AngF6Bkf/HWruHOn/EELIAD1DUHqEUA70DNAzOHqEUA70DNAzOHqEUA70DNAzOHqEUA70DNAzOHqEUA70DNAzOHqEUA70DNAzOHqEUA70DNAzOHqEUA70DNAzOHqEUA70DNAzOHqEUA70DNAzOHqEUA70DNAzOHqEUA70DNAzOPpqQ3jkIQ0cerJfjiUvAX0a6Bk6qz+M4tA50iHERb0M0DMEpceV9XKgZ4CewdEjhHKgZ4CewdEjhHKgZ4CewdEjhHKgZ4CewdEjhHKgZ4CewdEjhHKgZ4CewdEjhHKgZ4CewdEjhHKgZ4CewdEjhHKgZ4CewdEjhHKgZ4CewdE3DeHojdvrbN383IqFY/9Ok8qBEOYEeoag9M1COEBl8Nb0E2hyCRDCnEDPEJS+WQgnUu5cZtJ0OQhhTqBnCErfLIQzKHS9eOkYmkMKQpgT6BmC0hcOodrwU5pFCEKYE+gZgtK3COG0adOmThw3auLsJZtsg+YBmkUIQpgT6BmC0rcIIdVijptum5TqRy0yEMKcQM8QlD5/CHt6zvzCNj5BdRkIYU6gZwhKXySEPefZxq+c7BQDIcwJ9AxB6QuFsGetbR1EVREIYU6gZwhKXyyE42zrWKqKQAhzAj1DUPpiIbzMtt5IVREIYU6gZwhKXyyEv7Gtd1FVBEKYE+gZgtIXC+GxtvVmqopACHMCPUNQ+mIh/IttHU1VEQhhTqBnCEpfLITDbGtEVREIYU6gZwhKXyyED5jGD6kmAyHMCfQMQekLhfBPtvFWqspACHMCPUNQ+kIhfNo2Hk9VGQhhTqBnCEpfIIRHPW7bRlFdCEKYE+gZgtLnDuGfp+yzTaWOT2gQwpxAzxCUvkUIX9v0wrpnVq16+pX3bV2pKTSDGIQwJ9AzBKVvEUKX7X+g6XIQwpxAzxCUvmAI1dPDaQYxCGFOoGcISl80hErtuJhmEYIQ5gR6hqD0xUOo1E00jwyEMCfQMwSlbxHCGZrrJ40fM3HWxjV7bZOmVAoRwpxAzxCUvkUIqWYZZM9a0wylFgkIYU6gZwhKXySEPT2XfWqb9x5NDQIQwpxAzxCUvlgIeyJaJy1xN3yEMCfQMwSlLxjCnqtt+8dUFYAQ5gR6hqD0RUPY84qd8C+qFgchzAn0DEHpC4fwJjthGlWLgxDmBHqGoPSFQ0gPLlxI1eIghDmBniEofeEQnmonPEzV4iCEOYGeISh94RDSXQ8fpWpxEMKcQM8QlL5wCP9pJ9xD1eIghDmBniEofeEQXmknzKZqcRDCnEDPEJS+cAgfthPOo2pxEMKcQM8QlL5oCP9l29XPqV4chDAn0DMEpS8YwiPW2/alVBeAEOYEeoag9MVCeMxq26z+QQ0CEMKcQM8QlL5ICH9w9Qe2Vd1GLRIQwpxAzxCUvkUIR1w99HLDv0dPf/xj26bUWppJBEKYE+gZgtK3CGEmG4+lmUQghDmBniEovSCEDx9F88hACHMCPUNQ+mYhnEKJ68XWkjdbQwjzAj1DUPpmIRxMmXN4cTJNl4MQ5gR6hqD0zULYM2f3l2k+37PzmUX//i1NLANCmBPoGYLSNw1h20AIcwI9Q1B6hFAO9AzQMzh6hFAO9AzQMzh6hFAO9AzQMzh6hFAO9AzQMzh6hFAO9AzQMzh6hFAO9AzQMzh6hFAO9AzQMzh6hFAO9AzQMzh6hFAO9AzQMzh6hFAO9AzQMzh6hFAO9AzQMzh6hFAO9AzQMzh6hFAO9AzQMzh6hFAO9AzQMzh6hFAO9AzQMzh6hFAO9AzQMzh6hFAO9AzQMzh6hFAO9AzQMzj6akN42Lca+HYfvxxKXgL6NNAzdFb/XYpD50iH8Hv0VyRQsy8OIW0CNfsCegboGRz9d6i5c6T/QwghA/QMQekRQjnQM0DP4OgRQjnQM0DP4OgRQjnQM0DP4OgRQjnQM0DP4OgRQjnQM0DP4OgRQjnQM0DP4OgRQjnQM0DP4OgRQjnQM0DP4OgRQjnQM0DP4OgRQjnQM0DP4OgRQjnQM0DP4OgRQjnQM0DP4OirDeGRhzRw6Ml+OZa8BPRpoGforP4wikPnSIcQF/UyQM8QlB5X1suBngF6BkePEMqBngF6BkePEMqBngF6BkePEMqBngF6BkePEMqBngF6BkePEMqBngF6BkePEMqBngF6BkePEMqBngF6BkePEMqBngF6BkefL4Q/PHHg0NFjhw062UmNBIQwJ9AzBKXPEcKTZq/5UhFfrZrwV2qWghDmBHqGoPQtQ3ju05S/Gi8Oo0kyEMKcQM8QlL5FCE96kpLXwM6hNFkCQpgT6BmC0vMhHEmp68UCmkEAQpgT6BmC0rMhnEORy2AazVIchDAn0DMEpedCOJcCp9T+ByZe3u9fg4bevI4a1Is0T3EQwpxAzxCUngnhVMqb2nTZj6mpp+eosa+btneoXhyEMCfQMwSlbx7C00zYNLOpIeHaj3Xju1QpDkKYE+gZgtI3D+ELNoLqfKrXOepupTZTuTgIYU6gZwhK3zSEN1IGL6N6A5e/dh2VioMQ5gR6hqD0zUJ4AmVwFNX9gRDmBHqGoPTNQkg/hGup6hGEMCfQMwSlbxLCH8Y7XzQR1T2CEOYEeoag9E1COMpmcDlVfYIQ5gR6hqD0TUL4ig3hhVT1CUKYE+gZgtJnh/DXNoO7qeoVhDAn0DMEpc8O4WU2hLdR1SsIYU6gZwhKnx3C+TaEV1HVKwhhTqBnCEqfHcK1NoSnUtUrCGFOoGcISp8dwr0mg19mTywJQpgT6BmC0mfm7Kcmg+plqvoFIcwJ9AxB6TND+DsbwjVU9QtCmBPoGYLSZ4aQrmJaQVW/IIQ5gZ4hKH1mCPvZEC6lql8QwpxAzxCUPjOEg2wIS9zNiQEhzAn0DEHpM0N4vg3hQqr6BSHMCfQMQekzQ9jXhvABqvoFIcwJ9AxB6TNDeLIN4ZNU9QtCmBPoGYLSZ4bwWBvCDVT1C0KYE+gZgtJnhvAIG8K3qOoXhDAn0DMEpc8MYc8XNoX/RVWvIIQ5gZ4hKH12COl2h32p6hWEMCfQMwSlzw4hXcp0LVW9ghDmBHqGoPTZIbzUhvBhqnoFIcwJ9AxB6bND+BsbQvUrqvsEIcwJ9AxB6bND2LPThnAsVX2CEOYEeoag9E1CONuGcCNVfYIQ5gR6hqD0TUL4WxtCNYXqHkEIcwI9Q1D6JiHseYhS+Aeq+wMhzAn0DEHpm4XwXArhhswD9r9YKD+5GyHMCfQMQembhbBnGZPCyz5QyslPfhDCnEDPEJS+aQiP/pBSuOUCakk49eG4+SiqFQYhzAn0DEHpm4awZ4iJYMyD/6SmmIHLbeOvqV4YhDAn0DMEpW8ewp6bbdpidt4xfOCpvz/t3LHL3qYW1YfmKgxCmBPoGYLSMyHsmUp5y+IRmqc4CGFOoGcISs+FMHlKYQYP/ZRmKQ5CmBPoGYLSsyHsiVZR6BrZUeZJMQhhTqBnCErPh7Cn58KNFLw628ceThNFIIQ5gZ4hKH2rEPb09F9U2xmj2XjTv6hdCkKYE+gZgtK3DqHm9wNHTJ+76JYZ1/T9JbWUACHMCfQMQelzhdArCGFOoGcISo8QyoGeAXoGR48QyoGeAXoGR48QyoGeAXoGR48QyoGeAXoGR48QyoGeAXoGR48QyoGeAXoGR48QyoGeAXoGR48QyoGeAXoGR48QyoGeAXoGR48QyoGeAXoGR48QyoGeAXoGR48QyoGeAXoGR48QyoGeAXoGR48QyoGeAXoGR48QyoGeAXoGR48QyoGeAXoGR48QyoGeAXoGR19tCA/7VgPf7uOXQ8lLQJ8GeobO6r9Lcegc6RB+j/6KBGr2xSGkTaBmX0DPAD2Do/8ONXeO9H8IIWSAniEoPUIoB3oG6BkcPUIoB3oG6BkcPUIoB3oG6BkcPUIoB3oG6BkcPUIoB3oG6BkcPUIoB3oG6BkcPUIoB3oG6BkcPUIoB3oG6BkcPUIoB3oG6BkcPUIoB3oG6BkcPUIoB3oG6BkcPUIoB3oG6BkcfbUhPPKQBg492S/HkpeAPg30DJ3VH0Zx6BzpEOKiXgboGYLS48p6OdAzQM/g6BFCOdAzQM/g6BFCOdAzQM/g6BFCOdAzQM/g6BFCOdAzQM/g6BFCOdAzQM/g6BFCOdAzQM/g6BFCOdAzQM/g6BFCOdAzQM/g6JuGcPTG7XW2vLTmkYUzLvk9TSsFQpgT6BmC0jcL4QCVxQd3XUTT5SCEOYGeISh9sxBOpNj1YvNlNIcUhDAn0DMEpW8WwhmUuQyev5DmkYEQ5gR6hqD0ghAqdTPNJAIhzAn0DEHpW4TwvvuWLll46y0LFi1/4SPbYljxXzSbAIQwJ9AzBKVvEUKqGf48bq1t1GyV7yhFCHMCPUNQ+gIh1Jz7om1Wag21FAchzAn0DEHpi4Wwp2eUbVdqLjUUBiHMCfQMQemLhrDnAjtBKemhCoQwJ9AzBKUvHMKesz+3k96helEQwpxAzxCUvngIe4bbSeoqqhcEIcwJ9AxB6QUh7HnYTnuFqgVBCHMCPUNQekkIT7DT1GCqFwMhzAn0DEHpJSHsudtOXEbVYiCEOYGeISi9KIRn2InvUrUYCGFOoGcISi8KYc9mO/VEqhYCIcwJ9AxB6WUhvM1OHU7VQiCEOYGeISi9LIRX2qlLqVoIhDAn0DMEpZeF8C926jNULQRCmBPoGYLSy0L4Azt1M1ULgRDmBHqGoPSyEPZ8YqbupFohEMKcQM8QlF4YwrfN1H1UKwRCmBPoGYLSC0O4yU4+gqpFQAhzAj1DUHphCF+wkxHCFNCngZ7B0QtDuMVM/ZpqhUAIcwI9Q1B6YQh3mamfUa0QCGFOoGcISi8M4V4zdQfVCoEQ5gR6hqD0shDSccKXqFoIhDAn0DMEpZeF8BQ7dQVVC4EQ5gR6hqD0shBeZafOoWohEMKcQM8QlF4WwkV2quiGawhhTqBnCEovC+FGO/UkqhYCIcwJ9AxB6UUhpE3CbVQtBkKYE+gZgtKLQjjPTlxA1WIghDmBniEovSSE37fXUKi+VC8GQpgT6BmC0ktCOM1O20TVgiCEOYGeISi9IISRnSS7wwxCmBvoGYLSC0JIlzEJb8CNEOYFeoag9IVD+Iun7RQlfXI9QpgT6BmC0hcN4Ymv2gnCXaMahDAn0DMEpS8WwmNuts14Um8M9AzQMzj6AiE8/pJbv7atSm05mhqLgxDmBHqGoPQtQjh1wphrNdfPW7ryTdtiWHsMzSYAIcwJ9AxB6VuEMJuFzd6VB4QwJ9AzBKUXhHCr7LmECQhhTqBnCErfLIRTKHG92DaO5pCCEOYEeoag9M1COJgy18i7i8+l6XIQwpxAzxCUvunW3ZzdX9Y48Nkn725Y/p/LTqFppUAIcwI9Q1D6MrtYZCCEOYGeISg9QigHegboGRw9QigHegboGRw9QigHegboGRw9QigHegboGRw9QigHegboGRw9QigHegboGRw9QigHegboGRw9QigHegboGRw9QigHegboGRw9QigHegboGRw9QigHegboGRw9QigHegboGRw9QigHegboGRw9QigHegboGRw9QigHegboGRw9QigHegboGRw9QigHegboGRw9QigHegboGRw9QigHegboGRx9tSE87FsNfLuPXw4lLwF9GugZOqv/LsWhc6RD+D36KxKo2ReHkDaBmn0BPQP0DI7+O9TcOdL/IYSQAXqGoPQIoRzoGaBncPQIoRzoGaBncPQIoRzoGaBncPQIoRzoGaBncPQIoRzoGaBncPQIoRzoGaBncPQIoRzoGaBncPQIoRzoGaBncPQIoRzoGaBncPQIoRzoGaBncPQIoRzoGaBncPQIoRzoGaBncPTVhvDIQxo49GS/HEteAvo00DN0Vn8YxaFzpEOIi3oZoGcISo8r6+VAzwA9g6NHCOVAzwA9g6NHCOVAzwA9g6NHCOVAzwA9g6NHCOVAzwA9g6NHCOVAzwA9g6NHCOVAzwA9g6NHCOVAzwA9g6NHCOVAzwA9g6NvGsLRG7dns55mkIIQ5gR6hqD0zUI4QDXlbJpFCEKYE+gZgtI3C+FESlwGl9IsQhDCnEDPEJS+WQhnUOIyGEyzCEEIcwI9Q1B6QQhPoVmEIIQ5gZ4hKH2LEN5nWXrPXUsWL1p4+4Jb580dRXNIQQhzAj1DUPoWIaSaTxDCnEDPEJQeIZQDPQP0DI4eIZQDPQP0DI4eIZQDPQP0DI4eIZQDPQP0DI4eIZQDPQP0DI4eIZQDPQP0DI4eIZQDPQP0DI4eIZQDPQP0DI4eIZQDPQP0DI4eIZQDPQP0DI4eIZQDPQP0DI4eIZQDPQP0DI4eIZQDPQP0DI6+RQhPOO7YBn5Fk0uAEOYEeoag9C1C2IuSl9VrEMKcQM8QlL5oCBfTdDkIYU6gZwhKXzSEy2i6HIQwJ9AzBKUvGsI7abochDAn0DMEpS8awstouhyEMCfQMwSlbxHC3/4mzQnHH02TS4AQ5gR6hqD0LUJINZ8ghDmBniEoPUIoB3oG6BkcPUIoB3oG6BkcPUIoB3oG6BkcPUIoB3oG6BkcPUIoB3oG6BkcPUIoB3oG6BkcPUIoB3oG6BkcPUIoB3oG6BkcPUIoB3oG6BkcPUIoB3oG6BkcPUIoB3oG6BkcPUIoB3oG6BkcPUIoB3oG6BkcPUIoB3oG6BkcPUIoB3oG6BkcfYsQTp86ZdKE8WPHXFtnGM0hBSHMCfQMQelbhDCLCTSLEIQwJ9AzBKUXhPB+mkUIQpgT6BmC0jcL4RRKXAYP0yxCEMKcQM8QlL5ZCAdT4jK4i2YRghDmBHqGoPTNQtgzZ/eX2ewdSHMIQQhzAj1DUPqmIWwbCGFOoGcISo8QyoGeAXoGR48QyoGeAXoGR48QyoGeAXoGR48QyoGeAXoGR48QyoGeAXoGR48QyoGeAXoGR48QyoGeAXoGR48QyoGeAXoGR48QyoGeAXoGR48QyoGeAXoGR48QyoGeAXoGR48QyoGeAXoGR48QyoGeAXoGR48QyoGeAXoGR48QyoGeAXoGR48QyoGeAXoGR48QyoGeAXoGR48QyoGeAXoGR48QyoGeAXoGR19tCA/7VgPf7uOXQ8lLQJ8GeobO6r9Lcegc6RB+j/6KBGr2xSGkTaBmX0DPAD2Do/8ONXeO9H8IIWSAniEoPUIoB3oG6BkcPUIoB3oG6BkcPUIoB3oG6BkcPUIoB3oG6BkcPUIoB3oG6BkcPUIoB3oG6BkcPUIoB3oG6BkcPUIoB3oG6BkcPUIoB3oG6BkcPUIoB3oG6BkcPUIoB3oG6BkcPUIoB3oG6BkcfbUhPPKQBg492S/HkpeAPg30DJ3VH0Zx6BzpEOKiXgboGYLS48p6OdAzQM/g6BFCOdAzQM/g6BFCOdAzQM/g6BFCOdXoP9q3bwwVSxFk5/iis3qEUE41+k+UQgjD0iOEcqrRI4Qx1ejbtBaCEMqpRo8QxgTV9wihnKAGAvo+TWf7vmkIR2/cbnmzkXk0XQxCmJPODgT0fZrO9n2zEA5QzTiC5pCCEOYkz0C4aNyMoX2pTAwcccOIs6lc47IbRg6gYkKQneOLPH1fAkffLIQTKXK9OYHmkIIQ5qTlQOh7737zjbydGhg3fmia3p9H9aVKzYlW6fcotXY8tVmC7BxftOz7cjj6ZiGcYb7LLI6jOaQghDlpNRBmvk/fiFL3mIYoumQjNSi15nzTokN4+0vUpG4yTUSQneOLVn0f02Qt5Bwq12i9FlI4hPt/QHNIQQhz0mIgXPO1/jYenD58/lr9+rCZ1Pc1XVx58+QbHtWv202TDqH+uVwy+rwJL+i2aabNEmTn+KJF33teC2kRwo0bN770wob169Y++/RTq55c+fiKR4fTDGIQwpy0GAg6cNuGm5Y79Bc1Li7ob/3AjaZp4m76edRNas8k07ZMqbdMwRJk5/iiRd97XgtpEUKq+QQhzAk/EGbpb2eYbYn0D1/8u3eRbppvW6Lpuny1fo1DuNA2nb5Hqem2GBNk5/iC73u7FrLc21oIQiin0oGwSqmHbINeCOtvaqTJZf2n7nW7jNYD4ZPTbUu0RKknqagJsnN8wfe977UQhFBOpQNhF40Hgx4UegDoZfAyajCJe1a/6IGw0jZE0bU6kFTUBNk5vuD73vdaCEIop9KBoL+cS22D5gml7osivdKT7BOIoml2cOiBcJdtiKLB+j1nUDnQzvEF3/e+10IQQjlVDoTz9ZfTj1qi6Hal1kXRdqUmU0MUDVXqC/2iB8Ic26AXx/o9F1I50M7xBdv33tdCEEI5VQ6E+Iym/tRivvXVUbRFqSnUEEXD7beuB8Js2xBFZ+n3nEflQDvHF2zfe18LQQjlVDoQ9EbGENug0etHS6PoqfpmiVk/2qZf9EBYbBui6DL9hdaPLgfZOb5g+977WghCKKfKgRBvd4y1DRpdmRtFd6dXiXTlOf2iB8IK2xBF45TaTUVNkJ3jC7bvva+FIIRyqhwI0WqlHrENUXSp/qauiqLZSr1NLVG01e6Z0wOhtsNguVLLqagJsnN8wfe977UQhFBOpQNhqv52Lrct0UNKvadfBu5T6hbbEk3Rk4fqVz0Q1EzbNFAXR9liTJCd4wu+732vhSCEciodCNFzSm2+zLTcor+oRXHhNr0aNNU0jXpHqfVxIQ7h1jiN0VlrzMZLjSA7xxd83/teC0EI5VQ6EKJh+uvZv2TckFkrdeElMyl6Uxe3Ths26V79+sXguCUOofpy8air5u/QhX+buSxBdo4v+L73vRaCEMqpdCBE0QT9a0c8c65piS5ZRw16GTzStOiBsF2PD8PH9n1EkJ3jixZ973ktBCGUU+1A0Cyz185svIHqmjlvm6Z3FtGpGnogvNj3qQO66evll9gmIsjO8UWLvve8FoIQyqlG379/ffd4dP6keeMupjJx1rULplxBZTMQNuiXMfNGD7QNNYLsHF800bdpLQQhlPNN0OuBkF4PSoHOYWiib9NaSIsQvvPW9je2vPbKyxtffH79urWaG2m6HIQwJ170eiDEpzFmgM5haKJv01pIixD25iiaQQxCmBMvej0QVlPRAZ3D4Kvv862FFA7hiTSDGIQwJ74GAkJYHF99n28tpHAIf08ziEEIc+JrICCExels3xcO4U9oBjEIYU46OxDQ92k62/ctQvicZu2aZ55e/eQTKx575OHlD1xH0+UghDmBnuGboPcVQqr5BCHMCfQM3wQ9QhiDgcAAPUNn9QihHOgZoGdw9AihHOgZoGdw9AihHOgZoGdw9AihHOgZoGdw9AihHOgZoGdw9AihnMr12/ftoyu3BYTeOaXorB4hlFO5fnvt9gkCQu+cUnRWjxDKqVyPECZU0Pce10IQQjmV69dv3owQGjqv97kARAjlQM8Quh4hzAnGGQP0DK31PtdCEEI5Xaa/cMwN5v56da4Yd+MYc9+vLA6uzilIZ/UIoZzK9bRKdHp8i/Xx8TPT1ZfPX2QnaRa8Yb7Ct9IPS08ReueUorN6hFBO5fp6CA/Ms9+XUsk+u3Pqd+CrPRChgdA7pxRF9eXWQhBCOZXr6yG03LFR/xM/nlLzoi4+OGvYpNX69QHb1EjonVOKIn1ffi0EIZTTRQNBqdfNg7eW6NK1cSH+ZfxPXIjvz157cEKa0DunFEX6vvxaCEIop4sGgnkeXsxmeibee/XfP/3zWH9qV53QO6cUhfreUGYtBCGU000DIXlM7HKbuKv0Yvkc2xLNf+6+1G2ia4TeOaUo1Pel10KahXD4/ti+imo+QQhzUmggXGlb4pEQh3CBUhttQ1NC75xSFOr70mshzULY0/Pf//Pno6noFYQwJ4UGwgDbEt1uB8B9Sq20DU0JvXNKUajvS6+FNA9hu0AIc1JkIHxtG0wI4yfCPqHU3bahKaF3TimK9H35tRCEUE43DQTbYEIYP8l5hVL32IamhN45pSjU96XXQhBCOd00EGyDGQiP2hesjpagSN+XXwtBCOV00UBIh/Bx/TI5vUq08p7ZVEoTeueUQtr3srUQhFBOlw6E+CfwCqX2nWlboqm141cNhN45pZD2vWwtBCGU040D4Q6lVsWvW5VaZBrMknk+FdOE3jmlEPW9eC0EIZTTjQNhMT3/YIpSH08wLTfrqUNMqZHQO6cUor4Xr4UghHK6cSAsSR5C8pJuXDZ56Kjl+vUm0+IQeueUQtT34rUQhFBONw6Ee5IQDopPXLQ8ZBpcQu+cUoj6XrwWghDK6caBcF/9cVzT34wTqF4dTXWH0DunFKK+F6+FIIRyul5/5qgFE+rXuDkc7J3D0lrvcy0EIZQDPUPoep9rIQihHOgZDnZ9kbUQhFAO9AzQMzh6hFAO9AzQMzh6hFAO9AzQMzh6hFAO9AzQMzh6hFAO9AzQMzh6hFAO9AzQMzh6hFAO9AzQMzj6akN42Lca+HYfvxxKXgL6NNAzdFb/XYpD50iH8Hv0VyRQsy8OIW0CNfsCegboGRz9d6i5c6T/QwghA/QMQekRQjnQM0DP4OgRQjnQM0DP4OgRQjnQM0DP4OgRQjnQM0DP4OgRQjnQM0DP4OgRQjnQM0DP4OgRQjnQM0DP4OgRQjnQM0DP4OgRQjnQM0DP4OgRQjnQM0DP4OgRQjnQM0DP4OgRQjnQM0DP4OirDeER/7uB/3OyX449pIFDqdkX0DNAz+DoD6M4dI50CJ2rGX9I1zz6AheWMkDP0Fl9tRf1IoQM0DMEpUcI5UDPAD2Do0cI5UDPAD2Do0cI5UDPAD2Do0cI5VSk/2jfvjFULEOYneOJzuoRQjkV6T9RCiEMSp83hEf/Y/CYKf+ZMWH46cdQixSEMCfN9AihpiJ9e9ZCcoXw/EWvm2ceWt59eJwjKQRCmJNmeoRQE1Tftw7hL+ftofSleH3Cz2hyYRDCnHR2IATSOZ7obN+3CuHh076g3DnsmUJzFAUhzElnB0IgneOJzvZ9ixCO2EWZy+D5v9JMxUAIc5JrIFw0bsbQvlQmBo68YcTZVK5x2Q0jB1CRCLNzPJGr7+U4ej6Ecyhv2TxFcxUDIcxJ64HQ99795ot4OzUwbvzQNL0/j+pLlZoTrdLvUWrteGozhNk5nmjd96Vw9FwIf/Sg+T4N6yee97df9/Q5/uTBN6ykJqV+TTMWAiHMScuBMPN9+h6Uusc0RNElG6lBqTXnmxYdwttfoiZ1k2myhNk5nmjZ9zFZayEjbhh5DpVrtFwLYUJ4RO27e2/08dRm+OWIF22748oHQpiTVgPhmq/1V/Dg9OHz1+rXh82kvq/p4sqbJ9/wqH7dbpp0CPXP5ZLR5014QbdNM22GMDvHE6363u9aCBPCB4xRc9MR1FLnrNXxhD9SrRAIYU5aDQQduG3DTcsd+rsYFxf0t37gRtM0cTf9POomtWeSaVum1FumYAizczzRqu/9roU0D+EUevPOU6mhkQteUV8eTuVCIIQ5aTEQZunvZphtifQPX/y7d5Fumm9boum6fLV+jUO40Dadvkep6baoCbNzPNGi7+1ayHJfayFNQzhQvy3mjROpoRdTxlKhGAhhTloMhFVKPWQb9EJYf1EjTS7rP3Wv22W0HgifnG5boiVKPUnFUDvHEy363vNaSNMQbo8TqCPdsDXoA4QwJy0Gwi4aDwY9KPQA0MvgZdRgEvesftEDYaVtiKJrdSCpGGrneKJF33teC2kWwqv1+2MGUN0fCGFOWgwE/eVcahs0Tyh1XxTplZ5kn0AUTbODQw+Eu2xDFA3W7zmDyoF2jida9L3ntZBmIYxXcDU3U9UjCGFO+IFwvv52+lFLFN2u1Loo0msvk6khioYq9YV+0QNhjm3Qi2P9ngupHGjneILve99rIU1CeIWJoNpGVZ8ghDnhB8IA/fX0pxbzra+Ooi1KTaGGKBpuv3U9EGbbhig6S7/nPCoH2jme4Pve91pIkxDS3tbrqOoThDAnLQaC3sgYYhs0ev1oaRQ9Vd8sMetH2/SLHgiLbUMUXaa/0trR5TA7xxN83/teC8kO4R/jBCq1vw/VfYIQ5oQfCPF2x1jboNGVuVF0d3qVSFee0y96IKywDVE0TqndVAy1czzB973vtZDsEE40GVQLqOoVhDAn/ECIViv1iG2Iokv1l3VVFM1W6m1qiaKtds+cHgi1HQbLlVpOxVA7xxMt+t7zWkh2CPVqbsx5VPUKQpiTFgNhqv6CLrct0UNKvadfBu5T6hbbEsXnWgzVr3ogqJm2KT70O8oWNWF2jida9L3ntZDsEL6nvy7NL6jqFYQwJy0GQvScUpsvMy236O9qUVy4Ta8GTTVNo95Ran1ciEO4NU5jdNYas/GSEGbneKJF33teC8kM4XFxAvVXTFW/IIQ5aTEQomH6K9q/ZNyQWfFlLS+ZSdGburh12rBJ9+rXLwbHLXEI1ZeLR101f4cu/NvMZQizczzRou89r4VkhvCf+h2a26nqF4QwJy0GQhRN0L92xDPnmpboknXUoJfBI02LHgjb9fgwfGzfZwmzczzRqu/9roVkhjD+hdXMpKpfEMKctBoImmX22pmNN1BdM+dt0/TOIjpVQw+EF/s+dUA3fb38EttkCbNzPNGq7/2uhWSGUG9ExlxLVcs1qx3u+g1NKQZCmJNm+v7967vHo/MnzRt3MZWJs65dMOUKKpuBsEG/jJk3eqBtSAizczzRTN+etZDMEE6z77uUqhY6ozvFKppSDIQwJ370eiCk1oNSoHMYmunbsxaSGUK6tcyZVLXELocf0KRCIIQ58aPXAyE+jbE36ByGZvr2rIVwIRxMVYu9mr+Bn9OkQiCEOfGj1wNhNRUbQecweOv7XGshmSGk1dERVLW8YhvTIIRpunYgIISF8db3udZCMkNIO2amUtUy8O67NEvvf/Dhx56g7UOEME3XDgSEsDCd7fvMEMbnuWnmUrU38ZXFGoQwzTd7IByUndOUzvZ9Zgj72Yw9SdXeIIQx0DNAXzKEv7cZ+4yqvUEIY6BngL5kCHs+siH7J1V7gRDGQM8APYOjzw7hKhuyyVTtBUIYAz0D9AyOPjuEE2zIXqNqLxDCGOgZoGdw9NkhPMmGzDlcXwchjIGeAXoGR58dwh46F3UtVV1m2skIYRro00DP4OibhPBimzJ1OdUd4lsMaxDCNNCngZ7B0TcJYc8mG7N92U+iQAhjukQ/Zt++j6hYhIOjc4R0Vt8shENtzJqskNLJpQhhmqr0Y9L3ds7PwdE5QjqrbxbCnvU2Z+qRH1FDmvgeGxqEME1VeoSwwr73shbSNIR//MwGTT1/ArWkoGcXIoRpKhsICOE3vO+bhrBniA2aUu823uYiBiGMCWogBNo5Qjrb981DmFzaq9l2ZUPc+j9J7Qhhmm/2QAi0c4R0tu+ZEPbcQFmLWTPl3FOP+1Gf4/45fNEuakIIyUt0XD/o6snxkyobB8KlkyZeREXijOFTpl09gCp1Au+ccuTVtz+EPddQ2Jqwg2YrBkKYkxb68x6Iv4O96y8dVx8Il24yNyHZ+1jtIVzR5Y9+HjepleYmfCmC7pyy5NV3IIQ9A+wdpZowh+YqBkKYE15/5U76Fr6+tzYQZtq8aXaYx6hrpia33FNqAjURIXdOaVrqva6F8CHsOXzqHvoKe7Gl8RY0uUEIc8Lqz9V5+3rRCHtbWRoI8Rm9W+eNHj33dV2w9/waGU+8bcLVN+htiAP127DHBNw55Wmh97wW0iKEPT1HzqotXlPsuX8gTS8MQpgTVn+fUu9dExfOXqu/DjsQdNDuNIVopVJPmYKO4yZzV74zXlHqRdOUEHDnlIfX+14LaRlCHY2L77c3NU14df7ZNEkCQpgTTn/6gdrzJy/Q34gZCEuUetm0aN61jx9JnkyiiU+BOscWLeF2jgdYvfe1kBwhjDnm7GsXLFm6bNEt04f/I+sUmgIghDnh9JPsQ9ENj9NA+CT1rNjb7YO4Vij1kG2Ioq0r76g/4lkTbud4gNV7XwvJGUKPIIQ54fSPpB6QN9EOhHP1gKg9j3mEvfezHhr1B6k7hNs5HuD0/tdCEEI5FerX0PO4YvRXHA+E4fqb3qP51KDUTt2mN0quMvNkEG7neIDT+18LQQjlVKjXKzizqBgNsAOBLrSu0zc6U/9b+3F0CbdzPMDp/a+FIIRyKtS/mgrhGXYg3KzUF198/vm+ffs+27v30z17PhkUxfePRQglcHpmLcSuhhReC0EI5VSoX6fUYipGl9iBMEapT21DnfeVupqKvQi3czzA6f2vhSCEcirU6w2OR6kYjbYD4UL9rZ9lW2q8lNpUWfDQbQ37ycPtHA9wem4tJF4JKb4WghDKqVCvt0V2UTFaZAdC9HkqcTO3bXxSv+jNl3gfgWFzanJMuJ3jAU7vfy0EIZRTpf4DpRbY0tl648OEUCduh2nRbLM7B66rL44v/VKp+glVmoA7pzyc3v9aCEIop0r9XKX2mNOj+j2tB4AJ4aAvlFoRF6IoPrXRHE5+TqknzzRNm9wHVgbcOeXh9P7XQhBCOZXqX9M5WzhiyJw39asdCPEBKvX6rCuHTHhBF+4zTfFuu10Lrrl8gv5p3NlwvDjozikNq/e+FoIQyqlUP+BF/SUbpiYhjBYcoKb6kayp71GD2t14+mLQnVMaVu99LQQhlFOxflF8ldnXr1w+pBbC6KKn7ZVnz4+hhig64yH7iK0HGk7Z0ITdOSXh9b7XQhBCOVXr+11z/bV99Wv//v1tQ8yl0+aMdK4ivfj6Ode4uw2C75xy8HrfayEIoRzoGcLW+10LQQjlQM8QuN7rWghCKAd6BugZHD1CKAd6BugZHD1CKAd6BugZHD1CKAd6BugZHD1CKAd6BugZHD1CKAd6BugZHH21Ifz//t8G/p8+fjn0Ww18m5p9AT0D9AyO/rsUh86RDuH36K9IoGZfHELaBGr2BfQM0DM4+u9Qc+dI/4cQQgboGYLSI4RyoGeAnsHRI4RyoGeAnsHRI4RyoGeAnsHRI4RyoGeAnsHRI4RyoGeAnsHRI4RyoGeAnsHRI4RyoGeAnsHRI4RyoGeAnsHRI4RyoGeAnsHRI4RyoGeAnsHRI4RyoGeAnsHRI4RyoGeAnsHRVxvCIw9p4NCT/XIseQno00DP0Fn9YRSHzpEO4Y/olcCVn2mgZwhKX+1FvQghA/QMQekRQjnQM0DP4OgRQjnQM0DP4OgRQjnQM0DP4OgRQjnQM0DP4OgRQjnQM0DP4Oibh/CIo/pQKYMjj/4plQqDEOYEeoag9M1COGiLUurzRVRzmPaBnvjuOKoVBCHMCfQMQembhXCGebqhoprDOjPtYaoVBCHMCfQMQekRQjnQM0DP4OgRQjnQM0DP4OgRQjnQM0DP4OgRQjnQM0DP4OhFIVxvpiGE5CWgTwM9g6MXhXCDmYYQkpeAPg30DI5eFMIXzDSEkLwE9GmgZ3D0ohC+ZKYhhOQloE8DPYOjF4Vwo5mGEJKXgD4N9AyOXhTCl800hJC8BPRpoGdw9KIQvmKmIYTkJaBPAz2DoxeF8DUzDSEkLwF9GugZHL0ohPEVFggh9BzQMzh6UQi3mmkIIXkJ6NNAz+DoRSHcZqYhhOQloE8DPYOjF4XwTTMNISQvAX0a6BkcvSiEb5tp3/wQnj/80r5UlMDp+1408iIqSglqnEGfxtGLQviOmdauEN742Z6PPti1463t27dsXPv4DNOmeXXfvpupmBeuKwfe9tZX8f9i18ph1BJF+/btu5GKhp379r1oCvs+/fjD93e+vX37ts0bVi8ZbNoY/aX3xPf/UAd2LLuQWqLztHsolQ26fm/82k8XGvh8n5nO/fUr9+1bRkU5nR1nvfRYANZpEcLhV2uuqhNXr756p5nWthAae409y01r9KpSHkP4ANljnk6+Ml2eTUWD/n8+bwp2vhrPjzOtTfRnPU2zxTxCjefp8hVUNuj6PfFrPzNbA2Y699evVKpNIcQC0ML0fRsWgC1CyNGhECYD2WcIL9lEarU9/mfLmbZZF2fakkWHcL0pxDOl+cjENls/agfNpMxa+zO2NQ7hZbZo0fW74tcuCyH9CQQWgJY2932XhnCQ4bxLr7nxLV2bHzd7HAjnfKilT9iF47AndNl+3fGXM92WLHq1e50p6AlzzV808OKh41fr2qa4NVN/lZ56gJbCY+Krn+1QyArhnfFrPBAmG3cNM73TA6He9w1gARjT5r7v0hCagqG//s7299MFjwNBd2TqG79H1xaaki5MMwVCf5NrTEFPmGUKhtt1Nf5TMvX6z9w30pRi4sBOiQtZA2FR/BoPhGtNi0tnB0K97+2SAAvAFG3u+64PYXSNrsYJ8DcQZpExYY1e7zIF3X69KRBvKvWsKThv2GxHQpb+Lj3rqLhA6HH8WvzaayB8rdQd8Wv3hdAUDFgAEm3u++4PYfSeXYNvGAgDhs+cft15VGlKk67cqNTLVDSM0R94U1z4ygmhXl962hT0DOkQLlLqY/2Spd+t1KPxa8Jc/dbh+rXXQPhSqdvi19IDYdDIG685i8rEmcOmjzufyjXOv35cbVdFTKYeC0BLzr6X4uhbhPCqK7N410zrVAhfUmqFfqkPhDEvfWr+ALXZrMCM0KXakLtUV2pDMrsr41km2SLxyv2TBsSvB5yB8IZSq01BvyM9EJbpet9M/SQ9ZYidydJ3411j49deA2G/nxDe9LF+v1LvpzIy2l7kkuxUiUbFvyl3mO/stRuoTZOpxwLQkqvvvS0AW4SQag6dDeFHSi3QL7WBsNh8uuW+uOELWruI0es3r1CxWVcuUeqr7ENUOhgNA2GLUitNQX9SeiDcrdQO/ZKhf1qp7WYWl14DQf/RZQbCA6Zwub2yM+bpgaYlih6nBv2X2J8FHcKX76UmlSSziR4LQAvb994XgN0fwnhr+zr9mgyEeIXmmYXDh01aqgtfxVvSOnhxJgzvp7/k7K58VqmNtuTyuTMQXm8SQr3IjXcaZOj1lsxDZhaXXgNhn4cQ9tMjVT0xZ/KNj+nXLWZS9Igubrp91NT7dMqV2f+hB4L+sJWTLxy1XDfZ9Goy9VgAWlr3vc8FoCiEdkdwZ0J41jalPomXlclA2EVffxSN1F9cXDxXv4GO+o5seG92V+qtiuQIkoMeqw0DQX9k1kCIR+It+jVDr38m4im96TUQ9qYGwj0z05jJmtYD4UGlPrd/15RPlFocFyZr3VLTNGSTUuZwtx4ISt1u2uboUnLELFOPBaCldd/7XACKQtjm09a0u5/hzMHDl+j/g92bRgNhqK6fEdc1etXEbDdsra0irEj9T5t15U6lltiSiw5Gw0DQ6xa1gXCj/ZPOGzo5XuMwe8976+Nvdap5h0uvgbAnNRAaMZM1LQdCvG5nf6CiaLYux1+7HrtP2ZboQt00V7/GIXzONkXr9ddGxUw9FoCWln3vdQEoCqE5EtrWEDbwpGmmgXD61Dtq6z930G7smXqsmIa4e5MTmzTZXamH/zxbctFTGgaCXuGoDYQG9pgP6a0/X08bbd7h0msg6G+ubAj117rVNmi2m5FwsX7/5dQS6YVvvHoYD4Rkp+E4pXZRMVOPBaClZd97XQCKQtjeS5ncENKiM1ka17nqxdSxpHitKZrauFmQ3ZVvNR0IOhgNA2FjkxBus8eaM/RfO4YavQaC3tqqDYR1DZjJmpYDQb+Ys68MestjlVkc0aqRZrTdkagHwnu2QaM/jRbHmXosAC0t+97rAlAUQv2hmnaG8Ksv9n6y+70db2x+YkFycmE6hJdPvmPFJr11kIRwFY2WZxrPfcruSh3d7G2HOBj13c8aPecTpqA/6Ov9+/Z89MG7b7627p7xpi1Tr/8mZ0lBDNSKCVQ26DlrA0G4XaLH6RzboNGL49ejaGHSIzHx4DvXDITN1GK22+zJl9l6LAAtLfve6wJQFML2XlkfDwRTaKQ2EM65U39hCXYgXKlj2z+KztTfg6kT2V2p+68+UBvQ27oNWxV6oMUdbrovvXOAyNDrlbO77USH07UiWSQadAjNVQMlQrhDqWR5EEXDlfo0ih5K/mKD/nW5xgwEPUQIvT5H/5NMPRaAlpZ973UBKAphe+8x0yKEw+MtFaX2blo2Xi+B6L+tx6Me0vqdj9m6Jbsrb9ZvtqWERY9NM8e3XnOW03ogmC3u/CHUayGv2okJqx8wvxPxjoeGLRY9ECbHr8KBEA9YvVVg3THXKvWB2VKr7wiP9zjqRa8eCHY4x+ivjk7RzNRjAWhh+977AlAUwvbebY0fCFfoRebn904wR2Xry55FZm/U80qNsHVLdlcO1v76GYYxevX6QPyq3x8fmq6hF112YOh35BsIE/ScegGY4kuzlIyiD5S61TRY4r2K5vsvEcK1dLKJQW+kvGYWMGupwe4dOMcMhJeoxfzg0IZTph4LQEvLvve6ABSF8HUzrZoQ3qPU+1fZlui+2kDor99z3gCldtoq0aQrdebsyRhEPFjjQ9Lxsuxt02K5SLfbEasL+QbCGV85Y+k6/VazDvJS42/AeN1uTtkvMRDuT2+X6Mqz5iyw+v4CXflMv+iBUDuUd4b+tFY7ZkyhESwAa7RjASgKof5ONNWEcFPtUJVZWiYDe50ekHrV3Kzq12jSlfP0B6T3o8WHW81VbVN0IT7ZkJivq/E1BAUGQpzjL9OnCers2Vwv1qss+ltJeDRJRomBcJNS22yD5i0z0OLlRm0Pnf5bNugXPRDUpbYlmqbUG1TM1GMBaGnZ914XgKIQxkdrqgqhXkImW8TxOf5J5+r8vK/XixpPnW3WlfqX/IP68vgOrbF7AeNFJF3eprlQL7lesEXdnjOEA/bqpWKyP8NkjfbJx2dZ1vdJ6K0IqpUYCBccUOo/tiWKv6/4F2pjfSMk3jcQf3YcwuQAlf7mkoMMmXosAC0t+97rAlAUws1mWjUhfCG5xCW6Qq922/MSYvR6fuPyTtOsK+NF5Fe3mE2RaHB8YWlyymN8Mcx6WlotiM9UvtKWdSnnQDCj533aTTg8fpqqPdJmL297xI6R/vHphB/Zzy8xEOIVwd32RLEx79J/Pj5txcbsvOf0Z8QnNcYDga7V05+7u78pNdFjAWhp2fdeF4CiEOoloqaaEMZf2+rpZ54z7P44g/V1oPhsRveMiaZdeUM881dr7n10mV6g64FZ++bMft83Vt/71FazCyJZ49DFvCG05zjvWb1kzkNmWVU7pfl8c8793pVL17y1Py7RbY3igeBwv53SciCYfSJq2fXDJsf/+b0XmKYVurjuP1eMXqiHsd0PYEKolk0acmN8sXltx3qmHgtAS+u+97kAFIVQR15TTQijJ82Hx2y6RP9jj91G0RBd3k3lhOZdOSG1p129WP8i+sbDokbt4hNdzh3C6GZzJzFidX3JfKEJPLF7DLWWCuEQ++DymG3Julz9NkoHbM7jgWBPr9DUz1fJ1GMBaKfk6HuPC0BRCPXKtqaiEEZzdsWfvn+z/mr0T3Jtr7BeMtjeqdO8K3VU7BkHav8LdACVmPqsbVc7F9fXr3Q1fwijAYv0elvM3tW0NCduTGK49ZZkmVhuIETRLfFYUOotc6W4ZfQWsxT4dDltoMQDIbrHLHXWpJb7mXosAO2UHH3vcQEoCmGbn1nfv39tiKZItQ65fk79hpUJOjxuY/OujLnw6klzJlxClRTnXDVu+pSrG7Zwsv8iRj94xNRbxjZcTG25aPh1syYOSy4/M2i3A01orq/Pozl79ILJtf0BxJVzZiZ7MSmEum3BxNSpnU30WADaKc3/+nYsAEUhtMuAtoVQxID0mXsENxA88A3RUwhdsvUN+a6RasUCMPXneFoAikK43kzrrhAucPeRa/iBUJpviL5QCEVgAdiMfH0vCuFzZlpXhfC6z5Uy9ypJg4EQowfCV1RM4/GvxwKwGeVCOOKzOGdPU80h3surtzOpVhD/ITzjq/U79d/T+/R8DIQYPRD2UzGNv78eC8Cm5FsANgthT8+Jp558HBV70edPfz/pCCoXpQ2/hGaZUD9lqAYGQoweCMlzTtL40WMByJJvAdg8hO2iDSGM73nznD3+2gAGQoweCM6VCwZPeiwAOfItAIMIYTR0QsbeMAwEFk96LAA58i0AwwhhEzAQGHzpsQAsjqNHCOVAzwA9g6NHCOVAzwA9g6NHCOVAzwA9g6NHCOVAzwA9g6NHCOVAzwA9g6NHCOVAzwA9g6NHCOVAzwA9g6NHCOVAzwA9g6NHCOVAzwA9g6NHCOVAzwA9g6NHCOVAzwA9g6NHCOVAzwA9g6NHCOVAzwA9g6NHCOVAzwA9g6NHCOVAzwA9g6NHCOVAzwA9g6NHCOVAzwA9g6NHCOVAzwA9g6OvNoSHfauBb/fxy6HkJaBPAz1DZ/XfpTh0jnQIv0d/RQI1++IQ0iZQsy+gZ4CewdF/h5o7R/o/hBAyQM8QlB4hlAM9A/QMjh4hlAM9A/QMjh4hlAM9A/QMjh4hlAM9A/QMjh4hlAM9A/QMjh4hlAM9A/QMjh4hlAM9A/QMjh4hlAM9A/QMjh4hlAM9A/QMjh4hlAM9A/QMjh4hlAM9A/QMjh4hlAM9A/QMjr7aEB7xvQYO+5FfjiQvAX0a6Bk6rKc4dA7fSxUAQEEQQgAqBiEEoGIQQgAqBiEEoGIQQgAqBiEEoGIQQgAqBiEEoGIQQgAqBiEEoGIQQgAqBiEEoGIQQgAqBiEEoGIQQgAqBiEEoGIQQgAqBiEEoGIQQgAqBiEEoGIQQgAqBiEEoGIQQgAqBiEEoGIQQgAqBiEEoGIQQgAqBiEEoGIQQgAqBiEEoGIQQgAqBiEEoGIQQgAqBiEEoGIQQgAqBiEEoGIQQgAqBiEEoGIQQgAqBiEEoGIQQgAqBiEEoGIQQgAqBiEEoGIQQgAqBiEEoGIQQgAqBiEEoGIQQgAqBiEEoGIQQgAqBiEEoGIQQgAqBiEEoGIQQgAqBiEEoGIQQgAqBiEEoGIQQgAqBiEEoGIQQgAqBiEEoGIQQgAqBiEEoGIQQgAqBiEEoGIQQgAqBiEEoGIQQgAqBiEEoGIQQgAqBiEEoGIQQgAqBiEEoGIQQgAqBiEEoGIQQgAqBiEEoGIQQgAqBiEEoGIQQgAqBiEEoGIQQgAqBiEEoGIQQgAqBiEEoGIQQgAqBiEEoGIQQgAqBiEEoGIQQgAqBiEEoGIQQgAqpafn/wJJg+4i/o6wVgAAAABJRU5ErkJggg==;movable=1;resizable=1;rotatable=1;deletable=1;editable=1;locked=0;connectable=1;" vertex="1" parent="1">
          <mxGeometry x="43" y="-5" width="900" height="1000" as="geometry" />
        </mxCell>
        <mxCell id="3sPB93pp8kDnpxtO9J0G-2" value="&lt;font style=&quot;font-size: 24px;&quot;&gt;Load&lt;/font&gt;" style="whiteSpace=wrap;html=1;aspect=fixed;fillColor=#4D9900;strokeColor=#b85450;rounded=1;movable=0;" vertex="1" parent="1">
          <mxGeometry x="70" y="520" width="80" height="80" as="geometry" />
        </mxCell>
        <mxCell id="3sPB93pp8kDnpxtO9J0G-3" value="&lt;font style=&quot;font-size: 24px;&quot;&gt;Load&lt;/font&gt;" style="whiteSpace=wrap;html=1;aspect=fixed;fillColor=#4D9900;strokeColor=#b85450;rounded=1;movable=0;" vertex="1" parent="1">
          <mxGeometry x="450" y="520" width="80" height="80" as="geometry" />
        </mxCell>
        <mxCell id="3sPB93pp8kDnpxtO9J0G-4" value="&lt;font style=&quot;font-size: 24px;&quot;&gt;Play&lt;/font&gt;" style="whiteSpace=wrap;html=1;aspect=fixed;fillColor=#4D9900;strokeColor=#b85450;" vertex="1" parent="1">
          <mxGeometry x="70" y="806" width="80" height="80" as="geometry" />
        </mxCell>
        <mxCell id="3sPB93pp8kDnpxtO9J0G-8" value="&lt;font style=&quot;font-size: 24px;&quot;&gt;CUE&lt;/font&gt;" style="whiteSpace=wrap;html=1;aspect=fixed;fillColor=#4D9900;strokeColor=#b85450;" vertex="1" parent="1">
          <mxGeometry x="260" y="805" width="80" height="80" as="geometry" />
        </mxCell>
        <mxCell id="3sPB93pp8kDnpxtO9J0G-9" value="&lt;font style=&quot;font-size: 24px;&quot;&gt;Loop&lt;/font&gt;" style="whiteSpace=wrap;html=1;aspect=fixed;fillColor=#4D9900;strokeColor=#b85450;" vertex="1" parent="1">
          <mxGeometry x="355" y="806" width="80" height="80" as="geometry" />
        </mxCell>
        <mxCell id="3sPB93pp8kDnpxtO9J0G-10" value="&lt;font style=&quot;font-size: 24px;&quot;&gt;Play&lt;/font&gt;" style="whiteSpace=wrap;html=1;aspect=fixed;fillColor=#4D9900;strokeColor=#b85450;" vertex="1" parent="1">
          <mxGeometry x="450" y="807" width="80" height="80" as="geometry" />
        </mxCell>
        <mxCell id="3sPB93pp8kDnpxtO9J0G-12" value="&lt;font style=&quot;font-size: 24px;&quot;&gt;CUE&lt;/font&gt;" style="whiteSpace=wrap;html=1;aspect=fixed;fillColor=#FF3333;strokeColor=#b85450;rounded=1;glass=0;shadow=0;gradientColor=none;movable=0;" vertex="1" parent="1">
          <mxGeometry x="640" y="806" width="80" height="80" as="geometry" />
        </mxCell>
        <mxCell id="3sPB93pp8kDnpxtO9J0G-13" value="&lt;font style=&quot;font-size: 24px;&quot;&gt;Loop&lt;/font&gt;" style="whiteSpace=wrap;html=1;aspect=fixed;fillColor=#4D9900;strokeColor=#b85450;" vertex="1" parent="1">
          <mxGeometry x="735" y="807" width="80" height="80" as="geometry" />
        </mxCell>
        <mxCell id="3sPB93pp8kDnpxtO9J0G-14" value="&lt;font style=&quot;font-size: 24px;&quot;&gt;Play&lt;/font&gt;" style="whiteSpace=wrap;html=1;aspect=fixed;fillColor=#4D9900;strokeColor=#b85450;rounded=1;glass=0;shadow=0;gradientColor=none;movable=0;" vertex="1" parent="1">
          <mxGeometry x="70" y="806" width="80" height="80" as="geometry" />
        </mxCell>
        <mxCell id="3sPB93pp8kDnpxtO9J0G-15" value="&lt;font style=&quot;font-size: 24px;&quot;&gt;Loop&lt;/font&gt;" style="whiteSpace=wrap;html=1;aspect=fixed;fillColor=#FF8000;strokeColor=#FF8000;rounded=1;glass=0;shadow=0;gradientColor=none;movable=0;" vertex="1" parent="1">
          <mxGeometry x="735" y="807" width="80" height="80" as="geometry" />
        </mxCell>
        <mxCell id="3sPB93pp8kDnpxtO9J0G-17" value="&lt;font style=&quot;font-size: 24px;&quot;&gt;CUE&lt;/font&gt;" style="whiteSpace=wrap;html=1;aspect=fixed;fillColor=#FF3333;strokeColor=#b85450;rounded=1;glass=0;shadow=0;gradientColor=none;movable=0;" vertex="1" parent="1">
          <mxGeometry x="260" y="805" width="80" height="80" as="geometry" />
        </mxCell>
        <mxCell id="3sPB93pp8kDnpxtO9J0G-18" value="&lt;font style=&quot;font-size: 24px;&quot;&gt;Loop&lt;/font&gt;" style="whiteSpace=wrap;html=1;aspect=fixed;fillColor=#FF8000;strokeColor=#b85450;rounded=1;glass=0;shadow=0;gradientColor=none;movable=0;" vertex="1" parent="1">
          <mxGeometry x="355" y="806" width="80" height="80" as="geometry" />
        </mxCell>
        <mxCell id="3sPB93pp8kDnpxtO9J0G-19" value="&lt;font style=&quot;font-size: 24px;&quot;&gt;Play&lt;/font&gt;" style="whiteSpace=wrap;html=1;aspect=fixed;fillColor=#4D9900;strokeColor=#b85450;rounded=1;glass=0;shadow=0;gradientColor=none;movable=0;" vertex="1" parent="1">
          <mxGeometry x="450" y="807" width="80" height="80" as="geometry" />
        </mxCell>
        <mxCell id="3sPB93pp8kDnpxtO9J0G-20" value="" style="ellipse;whiteSpace=wrap;html=1;aspect=fixed;fillColor=#4D9900;" vertex="1" parent="1">
          <mxGeometry x="830" y="140" width="80" height="80" as="geometry" />
        </mxCell>
        <mxCell id="3sPB93pp8kDnpxtO9J0G-21" value="" style="ellipse;whiteSpace=wrap;html=1;aspect=fixed;fillColor=#4D9900;" vertex="1" parent="1">
          <mxGeometry x="830" y="230" width="80" height="80" as="geometry" />
        </mxCell>
        <mxCell id="3sPB93pp8kDnpxtO9J0G-22" value="" style="html=1;shadow=0;dashed=0;align=center;verticalAlign=middle;shape=mxgraph.arrows2.arrow;dy=0.6;dx=40;direction=north;notch=0;fillColor=#121212;" vertex="1" parent="1">
          <mxGeometry x="845" y="150" width="50" height="60" as="geometry" />
        </mxCell>
        <mxCell id="3sPB93pp8kDnpxtO9J0G-23" value="" style="html=1;shadow=0;dashed=0;align=center;verticalAlign=middle;shape=mxgraph.arrows2.arrow;dy=0.6;dx=40;direction=north;notch=0;fillColor=#121212;rotation=-180;" vertex="1" parent="1">
          <mxGeometry x="845" y="240" width="50" height="60" as="geometry" />
        </mxCell>
        <mxCell id="3sPB93pp8kDnpxtO9J0G-24" value="&lt;font style=&quot;font-size: 24px;&quot;&gt;Loop&lt;br&gt;INC&lt;br&gt;&lt;/font&gt;" style="whiteSpace=wrap;html=1;aspect=fixed;fillColor=#FFB366;strokeColor=#b85450;rounded=1;glass=0;shadow=0;gradientColor=none;movable=1;" vertex="1" parent="1">
          <mxGeometry x="355" y="520" width="80" height="80" as="geometry" />
        </mxCell>
        <mxCell id="3sPB93pp8kDnpxtO9J0G-25" value="&lt;font style=&quot;font-size: 24px;&quot;&gt;Loop&lt;br&gt;DEC&lt;br&gt;&lt;/font&gt;" style="whiteSpace=wrap;html=1;aspect=fixed;fillColor=#4D9900;strokeColor=#b85450;rounded=1;glass=0;shadow=0;gradientColor=none;movable=1;" vertex="1" parent="1">
          <mxGeometry x="355" y="616" width="80" height="80" as="geometry" />
        </mxCell>
        <mxCell id="3sPB93pp8kDnpxtO9J0G-26" value="&lt;font style=&quot;font-size: 24px;&quot;&gt;Loop&lt;br&gt;INC&lt;br&gt;&lt;/font&gt;" style="whiteSpace=wrap;html=1;aspect=fixed;fillColor=#FFB366;strokeColor=#b85450;rounded=1;glass=0;shadow=0;gradientColor=none;movable=1;" vertex="1" parent="1">
          <mxGeometry x="735" y="520" width="80" height="80" as="geometry" />
        </mxCell>
        <mxCell id="3sPB93pp8kDnpxtO9J0G-27" value="&lt;font style=&quot;font-size: 24px;&quot;&gt;Loop&lt;br&gt;DEC&lt;br&gt;&lt;/font&gt;" style="whiteSpace=wrap;html=1;aspect=fixed;fillColor=#4D9900;strokeColor=#b85450;rounded=1;glass=0;shadow=0;gradientColor=none;movable=1;" vertex="1" parent="1">
          <mxGeometry x="735" y="616" width="80" height="80" as="geometry" />
        </mxCell>
        <mxCell id="3sPB93pp8kDnpxtO9J0G-28" value="&lt;font style=&quot;font-size: 27px;&quot;&gt;1&lt;/font&gt;" style="whiteSpace=wrap;html=1;aspect=fixed;fillColor=#B3B3B3;strokeColor=#b85450;rounded=1;movable=1;gradientColor=#FF8000;gradientDirection=south;" vertex="1" parent="1">
          <mxGeometry x="70" y="710" width="80" height="80" as="geometry" />
        </mxCell>
        <mxCell id="3sPB93pp8kDnpxtO9J0G-29" value="&lt;font style=&quot;font-size: 27px;&quot;&gt;2&lt;/font&gt;" style="whiteSpace=wrap;html=1;aspect=fixed;fillColor=#B3B3B3;strokeColor=#b85450;rounded=1;movable=1;gradientColor=#FF8000;gradientDirection=south;" vertex="1" parent="1">
          <mxGeometry x="165" y="710" width="80" height="80" as="geometry" />
        </mxCell>
        <mxCell id="3sPB93pp8kDnpxtO9J0G-30" value="&lt;font style=&quot;font-size: 27px;&quot;&gt;3&lt;/font&gt;" style="whiteSpace=wrap;html=1;aspect=fixed;fillColor=#B3B3B3;strokeColor=#b85450;rounded=1;movable=1;gradientColor=#FF8000;gradientDirection=south;" vertex="1" parent="1">
          <mxGeometry x="260" y="710" width="80" height="80" as="geometry" />
        </mxCell>
        <mxCell id="3sPB93pp8kDnpxtO9J0G-31" value="&lt;font style=&quot;font-size: 27px;&quot;&gt;4&lt;/font&gt;" style="whiteSpace=wrap;html=1;aspect=fixed;fillColor=#B3B3B3;strokeColor=#b85450;rounded=1;movable=1;gradientColor=#FF8000;gradientDirection=south;" vertex="1" parent="1">
          <mxGeometry x="355" y="710" width="80" height="80" as="geometry" />
        </mxCell>
        <mxCell id="3sPB93pp8kDnpxtO9J0G-32" value="&lt;font style=&quot;font-size: 27px;&quot;&gt;1&lt;/font&gt;" style="whiteSpace=wrap;html=1;aspect=fixed;fillColor=#FFFFFF;strokeColor=#b85450;rounded=1;movable=0;gradientColor=#FFB366;gradientDirection=north;fontColor=#121212;" vertex="1" parent="1">
          <mxGeometry x="450" y="710" width="80" height="80" as="geometry" />
        </mxCell>
        <mxCell id="3sPB93pp8kDnpxtO9J0G-33" value="&lt;font style=&quot;font-size: 27px;&quot;&gt;2&lt;/font&gt;" style="whiteSpace=wrap;html=1;aspect=fixed;fillColor=#FFFFFF;strokeColor=#b85450;rounded=1;movable=0;gradientColor=#FFB366;gradientDirection=north;" vertex="1" parent="1">
          <mxGeometry x="545" y="710" width="80" height="80" as="geometry" />
        </mxCell>
        <mxCell id="3sPB93pp8kDnpxtO9J0G-34" value="&lt;font style=&quot;font-size: 27px;&quot;&gt;3&lt;/font&gt;" style="whiteSpace=wrap;html=1;aspect=fixed;fillColor=#FFFFFF;strokeColor=#b85450;rounded=1;movable=0;gradientColor=#FFB366;gradientDirection=north;" vertex="1" parent="1">
          <mxGeometry x="640" y="710" width="80" height="80" as="geometry" />
        </mxCell>
        <mxCell id="3sPB93pp8kDnpxtO9J0G-35" value="&lt;font style=&quot;font-size: 27px;&quot;&gt;4&lt;/font&gt;" style="whiteSpace=wrap;html=1;aspect=fixed;fillColor=#B3B3B3;strokeColor=#b85450;rounded=1;movable=1;gradientColor=#FFB366;gradientDirection=north;" vertex="1" parent="1">
          <mxGeometry x="735" y="710" width="80" height="80" as="geometry" />
        </mxCell>
        <mxCell id="3sPB93pp8kDnpxtO9J0G-36" value="&lt;font style=&quot;font-size: 27px;&quot;&gt;4&lt;/font&gt;" style="whiteSpace=wrap;html=1;aspect=fixed;fillColor=#FFFFFF;strokeColor=#b85450;rounded=1;movable=0;gradientColor=#FFB366;gradientDirection=north;" vertex="1" parent="1">
          <mxGeometry x="735" y="710" width="80" height="80" as="geometry" />
        </mxCell>
        <mxCell id="3sPB93pp8kDnpxtO9J0G-37" value="&lt;font style=&quot;font-size: 27px;&quot;&gt;1&lt;/font&gt;" style="whiteSpace=wrap;html=1;aspect=fixed;fillColor=#B3B3B3;strokeColor=#b85450;rounded=1;movable=1;gradientColor=#FFB366;gradientDirection=south;" vertex="1" parent="1">
          <mxGeometry x="70" y="710" width="80" height="80" as="geometry" />
        </mxCell>
        <mxCell id="3sPB93pp8kDnpxtO9J0G-38" value="&lt;font style=&quot;font-size: 27px;&quot;&gt;2&lt;/font&gt;" style="whiteSpace=wrap;html=1;aspect=fixed;fillColor=#B3B3B3;strokeColor=#b85450;rounded=1;movable=1;gradientColor=#FFB366;gradientDirection=south;" vertex="1" parent="1">
          <mxGeometry x="165" y="710" width="80" height="80" as="geometry" />
        </mxCell>
        <mxCell id="3sPB93pp8kDnpxtO9J0G-39" value="&lt;font style=&quot;font-size: 27px;&quot;&gt;3&lt;/font&gt;" style="whiteSpace=wrap;html=1;aspect=fixed;fillColor=#FFFFFF;strokeColor=#b85450;rounded=1;movable=0;gradientColor=#FFB366;gradientDirection=south;arcSize=28;" vertex="1" parent="1">
          <mxGeometry x="260" y="710" width="80" height="80" as="geometry" />
        </mxCell>
        <mxCell id="3sPB93pp8kDnpxtO9J0G-40" value="&lt;font style=&quot;font-size: 27px;&quot;&gt;4&lt;/font&gt;" style="whiteSpace=wrap;html=1;aspect=fixed;fillColor=#FFFFFF;strokeColor=#b85450;rounded=1;movable=0;gradientColor=#FFB366;gradientDirection=south;arcSize=29;" vertex="1" parent="1">
          <mxGeometry x="355" y="710" width="80" height="80" as="geometry" />
        </mxCell>
        <mxCell id="3sPB93pp8kDnpxtO9J0G-41" style="edgeStyle=orthogonalEdgeStyle;rounded=0;orthogonalLoop=1;jettySize=auto;html=1;exitX=1;exitY=0.75;exitDx=0;exitDy=0;" edge="1" parent="1" source="3sPB93pp8kDnpxtO9J0G-38" target="3sPB93pp8kDnpxtO9J0G-38">
          <mxGeometry relative="1" as="geometry" />
        </mxCell>
        <mxCell id="3sPB93pp8kDnpxtO9J0G-42" value="&lt;font style=&quot;font-size: 27px;&quot;&gt;1&lt;/font&gt;" style="whiteSpace=wrap;html=1;aspect=fixed;fillColor=#FFFFFF;strokeColor=#b85450;rounded=1;movable=0;gradientColor=#FFB366;gradientDirection=south;labelPosition=center;verticalLabelPosition=middle;align=center;verticalAlign=middle;arcSize=30;" vertex="1" parent="1">
          <mxGeometry x="70" y="710" width="80" height="80" as="geometry" />
        </mxCell>
        <mxCell id="3sPB93pp8kDnpxtO9J0G-43" value="&lt;font style=&quot;font-size: 27px;&quot;&gt;2&lt;/font&gt;" style="whiteSpace=wrap;html=1;aspect=fixed;fillColor=#FFFFFF;strokeColor=#b85450;rounded=1;movable=0;gradientColor=#FFB366;gradientDirection=south;arcSize=30;" vertex="1" parent="1">
          <mxGeometry x="165" y="710" width="80" height="80" as="geometry" />
        </mxCell>
        <mxCell id="3sPB93pp8kDnpxtO9J0G-44" value="&lt;font style=&quot;font-size: 24px;&quot;&gt;Vol&lt;br&gt;min&lt;br&gt;&lt;/font&gt;" style="whiteSpace=wrap;html=1;aspect=fixed;fillColor=#FF3333;strokeColor=#b85450;rounded=1;glass=0;shadow=0;gradientColor=none;movable=1;" vertex="1" parent="1">
          <mxGeometry x="355" y="424" width="80" height="80" as="geometry" />
        </mxCell>
        <mxCell id="3sPB93pp8kDnpxtO9J0G-45" value="&lt;font style=&quot;font-size: 24px;&quot;&gt;Vol&lt;br&gt;min&lt;br&gt;&lt;/font&gt;" style="whiteSpace=wrap;html=1;aspect=fixed;fillColor=#FF3333;strokeColor=#b85450;rounded=1;glass=0;shadow=0;gradientColor=none;movable=1;" vertex="1" parent="1">
          <mxGeometry x="450" y="424" width="80" height="80" as="geometry" />
        </mxCell>
        <mxCell id="3sPB93pp8kDnpxtO9J0G-46" value="&lt;font style=&quot;font-size: 24px;&quot;&gt;Vol&lt;br&gt;max&lt;br&gt;&lt;/font&gt;" style="whiteSpace=wrap;html=1;aspect=fixed;fillColor=#4D9900;strokeColor=#b85450;rounded=1;movable=1;" vertex="1" parent="1">
          <mxGeometry x="354" y="139" width="80" height="80" as="geometry" />
        </mxCell>
        <mxCell id="3sPB93pp8kDnpxtO9J0G-47" value="&lt;font style=&quot;font-size: 24px;&quot;&gt;Vol&lt;br&gt;max&lt;br&gt;&lt;/font&gt;" style="whiteSpace=wrap;html=1;aspect=fixed;fillColor=#4D9900;strokeColor=#b85450;rounded=1;movable=1;" vertex="1" parent="1">
          <mxGeometry x="450" y="140" width="80" height="80" as="geometry" />
        </mxCell>
        <mxCell id="3sPB93pp8kDnpxtO9J0G-48" value="&lt;font style=&quot;&quot;&gt;&lt;span style=&quot;font-size: 24px;&quot;&gt;Vol&lt;/span&gt;&lt;br&gt;&lt;font style=&quot;font-size: 26px;&quot;&gt;+&lt;/font&gt;&lt;br&gt;&lt;/font&gt;" style="whiteSpace=wrap;html=1;aspect=fixed;fillColor=#CCFF99;strokeColor=#b85450;rounded=1;movable=1;" vertex="1" parent="1">
          <mxGeometry x="355" y="234" width="80" height="80" as="geometry" />
        </mxCell>
        <mxCell id="3sPB93pp8kDnpxtO9J0G-49" value="&lt;font style=&quot;&quot;&gt;&lt;span style=&quot;font-size: 24px;&quot;&gt;Vol&lt;/span&gt;&lt;br&gt;&lt;font style=&quot;font-size: 26px;&quot;&gt;+&lt;/font&gt;&lt;br&gt;&lt;/font&gt;" style="whiteSpace=wrap;html=1;aspect=fixed;fillColor=#CCFF99;strokeColor=#b85450;rounded=1;movable=1;" vertex="1" parent="1">
          <mxGeometry x="450" y="234" width="80" height="80" as="geometry" />
        </mxCell>
        <mxCell id="3sPB93pp8kDnpxtO9J0G-50" value="&lt;font style=&quot;&quot;&gt;&lt;span style=&quot;font-size: 24px;&quot;&gt;Vol&lt;/span&gt;&lt;br&gt;&lt;font style=&quot;font-size: 26px;&quot;&gt;-&lt;/font&gt;&lt;br&gt;&lt;/font&gt;" style="whiteSpace=wrap;html=1;aspect=fixed;fillColor=#FFCC99;strokeColor=#b85450;rounded=1;movable=1;" vertex="1" parent="1">
          <mxGeometry x="355" y="330" width="80" height="80" as="geometry" />
        </mxCell>
        <mxCell id="3sPB93pp8kDnpxtO9J0G-51" value="&lt;font style=&quot;&quot;&gt;&lt;span style=&quot;font-size: 24px;&quot;&gt;Vol&lt;/span&gt;&lt;br&gt;&lt;font style=&quot;font-size: 26px;&quot;&gt;-&lt;/font&gt;&lt;br&gt;&lt;/font&gt;" style="whiteSpace=wrap;html=1;aspect=fixed;fillColor=#FFCC99;strokeColor=#b85450;rounded=1;movable=1;" vertex="1" parent="1">
          <mxGeometry x="450" y="330" width="80" height="80" as="geometry" />
        </mxCell>
        <mxCell id="3sPB93pp8kDnpxtO9J0G-53" value="" style="endArrow=none;html=1;rounded=0;" edge="1" parent="1">
          <mxGeometry width="50" height="50" relative="1" as="geometry">
            <mxPoint x="450" y="890" as="sourcePoint" />
            <mxPoint x="440" y="140" as="targetPoint" />
          </mxGeometry>
        </mxCell>
        <mxCell id="3sPB93pp8kDnpxtO9J0G-54" value="" style="endArrow=none;html=1;rounded=0;strokeWidth=8;strokeColor=#006EAF;fillColor=#1ba1e2;" edge="1" parent="1">
          <mxGeometry width="50" height="50" relative="1" as="geometry">
            <mxPoint x="442" y="990" as="sourcePoint" />
            <mxPoint x="442" as="targetPoint" />
          </mxGeometry>
        </mxCell>
        <mxCell id="3sPB93pp8kDnpxtO9J0G-57" value="&lt;font size=&quot;1&quot; color=&quot;#3399ff&quot;&gt;&lt;b style=&quot;font-size: 39px;&quot;&gt;Deck A&lt;/b&gt;&lt;/font&gt;" style="text;html=1;strokeColor=none;fillColor=none;align=center;verticalAlign=middle;whiteSpace=wrap;rounded=0;" vertex="1" parent="1">
          <mxGeometry x="230" y="920" width="195" height="50" as="geometry" />
        </mxCell>
        <mxCell id="3sPB93pp8kDnpxtO9J0G-58" value="&lt;font size=&quot;1&quot; color=&quot;#3399ff&quot;&gt;&lt;b style=&quot;font-size: 39px;&quot;&gt;Deck B&lt;/b&gt;&lt;/font&gt;" style="text;html=1;strokeColor=none;fillColor=none;align=center;verticalAlign=middle;whiteSpace=wrap;rounded=0;" vertex="1" parent="1">
          <mxGeometry x="460" y="920" width="195" height="50" as="geometry" />
        </mxCell>
        <mxCell id="3sPB93pp8kDnpxtO9J0G-60" value="" style="ellipse;whiteSpace=wrap;html=1;aspect=fixed;fillColor=#4D9900;" vertex="1" parent="1">
          <mxGeometry x="355" y="50" width="80" height="80" as="geometry" />
        </mxCell>
        <mxCell id="3sPB93pp8kDnpxtO9J0G-61" value="" style="ellipse;whiteSpace=wrap;html=1;aspect=fixed;fillColor=#4D9900;" vertex="1" parent="1">
          <mxGeometry x="450" y="50" width="80" height="80" as="geometry" />
        </mxCell>
        <mxCell id="3sPB93pp8kDnpxtO9J0G-62" value="" style="verticalLabelPosition=bottom;shadow=0;dashed=0;align=center;html=1;verticalAlign=top;shape=mxgraph.electrical.radio.headphones;pointerEvents=1;aspect=fixed;" vertex="1" parent="1">
          <mxGeometry x="376" y="70" width="38" height="28" as="geometry" />
        </mxCell>
        <mxCell id="3sPB93pp8kDnpxtO9J0G-63" value="" style="verticalLabelPosition=bottom;shadow=0;dashed=0;align=center;html=1;verticalAlign=top;shape=mxgraph.electrical.radio.headphones;pointerEvents=1;aspect=fixed;" vertex="1" parent="1">
          <mxGeometry x="471" y="70" width="38" height="28" as="geometry" />
        </mxCell>
        <mxCell id="3sPB93pp8kDnpxtO9J0G-64" value="&lt;font style=&quot;font-size: 24px;&quot;&gt;Sync&lt;/font&gt;" style="whiteSpace=wrap;html=1;aspect=fixed;fillColor=#FFFFFF;strokeColor=default;rounded=1;glass=0;shadow=0;gradientColor=#FFCC99;movable=1;gradientDirection=south;arcSize=19;fontColor=#000000;" vertex="1" parent="1">
          <mxGeometry x="165" y="805" width="80" height="80" as="geometry" />
        </mxCell>
        <mxCell id="3sPB93pp8kDnpxtO9J0G-66" value="&lt;font style=&quot;font-size: 24px;&quot;&gt;Sync&lt;/font&gt;" style="whiteSpace=wrap;html=1;aspect=fixed;fillColor=#FFFFFF;strokeColor=default;rounded=1;glass=0;shadow=0;gradientColor=#FFCC99;movable=1;gradientDirection=north;arcSize=19;fontColor=#000000;" vertex="1" parent="1">
          <mxGeometry x="545" y="806" width="80" height="80" as="geometry" />
        </mxCell>
        <mxCell id="3sPB93pp8kDnpxtO9J0G-67" value="&lt;font style=&quot;&quot;&gt;&lt;span style=&quot;font-size: 24px;&quot;&gt;HIGH&lt;/span&gt;&lt;br&gt;&lt;font style=&quot;font-size: 26px;&quot;&gt;-&lt;/font&gt;&lt;br&gt;&lt;/font&gt;" style="whiteSpace=wrap;html=1;aspect=fixed;fillColor=#4D9900;strokeColor=#b85450;rounded=1;movable=1;" vertex="1" parent="1">
          <mxGeometry x="70" y="140" width="80" height="80" as="geometry" />
        </mxCell>
        <mxCell id="3sPB93pp8kDnpxtO9J0G-68" value="&lt;font style=&quot;font-size: 24px;&quot;&gt;Vol&lt;br&gt;max&lt;br&gt;&lt;/font&gt;" style="whiteSpace=wrap;html=1;aspect=fixed;fillColor=#4D9900;strokeColor=#b85450;rounded=1;movable=1;" vertex="1" parent="1">
          <mxGeometry x="165" y="139" width="80" height="80" as="geometry" />
        </mxCell>
        <mxCell id="3sPB93pp8kDnpxtO9J0G-69" value="&lt;font style=&quot;&quot;&gt;&lt;span style=&quot;font-size: 24px;&quot;&gt;HIGH&lt;/span&gt;&lt;br&gt;&lt;font style=&quot;font-size: 26px;&quot;&gt;+&lt;/font&gt;&lt;br&gt;&lt;/font&gt;" style="whiteSpace=wrap;html=1;aspect=fixed;fillColor=#4D9900;strokeColor=#b85450;rounded=1;movable=1;" vertex="1" parent="1">
          <mxGeometry x="260" y="140" width="80" height="80" as="geometry" />
        </mxCell>
        <mxCell id="3sPB93pp8kDnpxtO9J0G-70" value="&lt;font style=&quot;font-size: 24px;&quot;&gt;MID&lt;br&gt;-&lt;br&gt;&lt;/font&gt;" style="whiteSpace=wrap;html=1;aspect=fixed;fillColor=#4D9900;strokeColor=#b85450;rounded=1;movable=1;" vertex="1" parent="1">
          <mxGeometry x="70" y="235" width="80" height="80" as="geometry" />
        </mxCell>
        <mxCell id="3sPB93pp8kDnpxtO9J0G-71" value="&lt;font style=&quot;font-size: 24px;&quot;&gt;MID&lt;br&gt;kill&lt;br&gt;&lt;/font&gt;" style="whiteSpace=wrap;html=1;aspect=fixed;fillColor=#FF3333;strokeColor=#b85450;rounded=1;movable=1;" vertex="1" parent="1">
          <mxGeometry x="165" y="234" width="80" height="80" as="geometry" />
        </mxCell>
        <mxCell id="3sPB93pp8kDnpxtO9J0G-72" value="&lt;font style=&quot;font-size: 24px;&quot;&gt;MID&lt;br&gt;+&lt;br&gt;&lt;/font&gt;" style="whiteSpace=wrap;html=1;aspect=fixed;fillColor=#4D9900;strokeColor=#b85450;rounded=1;movable=1;" vertex="1" parent="1">
          <mxGeometry x="260" y="234" width="80" height="80" as="geometry" />
        </mxCell>
        <mxCell id="3sPB93pp8kDnpxtO9J0G-73" value="&lt;font style=&quot;font-size: 24px;&quot;&gt;LOW&lt;br&gt;-&lt;br&gt;&lt;/font&gt;" style="whiteSpace=wrap;html=1;aspect=fixed;fillColor=#4D9900;strokeColor=#b85450;rounded=1;movable=1;" vertex="1" parent="1">
          <mxGeometry x="70" y="330" width="80" height="80" as="geometry" />
        </mxCell>
        <mxCell id="3sPB93pp8kDnpxtO9J0G-74" value="&lt;font style=&quot;font-size: 24px;&quot;&gt;LOW&lt;br&gt;kill&lt;br&gt;&lt;/font&gt;" style="whiteSpace=wrap;html=1;aspect=fixed;fillColor=#FF9933;strokeColor=#b85450;rounded=1;movable=1;" vertex="1" parent="1">
          <mxGeometry x="165" y="330" width="80" height="80" as="geometry" />
        </mxCell>
        <mxCell id="3sPB93pp8kDnpxtO9J0G-75" value="&lt;font style=&quot;font-size: 24px;&quot;&gt;LOW&lt;br&gt;+&lt;br&gt;&lt;/font&gt;" style="whiteSpace=wrap;html=1;aspect=fixed;fillColor=#4D9900;strokeColor=#b85450;rounded=1;movable=1;" vertex="1" parent="1">
          <mxGeometry x="260" y="330" width="80" height="80" as="geometry" />
        </mxCell>
        <mxCell id="3sPB93pp8kDnpxtO9J0G-76" value="&lt;font style=&quot;&quot;&gt;&lt;span style=&quot;font-size: 24px;&quot;&gt;HIGH&lt;/span&gt;&lt;br style=&quot;border-color: var(--border-color); font-size: 12px;&quot;&gt;&lt;span style=&quot;font-size: 26px;&quot;&gt;kill&lt;/span&gt;&lt;br&gt;&lt;/font&gt;" style="whiteSpace=wrap;html=1;aspect=fixed;fillColor=#FF9933;strokeColor=#b85450;rounded=1;movable=1;" vertex="1" parent="1">
          <mxGeometry x="165" y="139" width="80" height="80" as="geometry" />
        </mxCell>
        <mxCell id="3sPB93pp8kDnpxtO9J0G-77" value="&lt;font style=&quot;&quot;&gt;&lt;span style=&quot;font-size: 24px;&quot;&gt;HIGH&lt;/span&gt;&lt;br&gt;&lt;font style=&quot;font-size: 26px;&quot;&gt;-&lt;/font&gt;&lt;br&gt;&lt;/font&gt;" style="whiteSpace=wrap;html=1;aspect=fixed;fillColor=#4D9900;strokeColor=#b85450;rounded=1;movable=1;" vertex="1" parent="1">
          <mxGeometry x="70" y="140" width="80" height="80" as="geometry" />
        </mxCell>
        <mxCell id="3sPB93pp8kDnpxtO9J0G-78" value="&lt;font style=&quot;&quot;&gt;&lt;span style=&quot;font-size: 24px;&quot;&gt;HIGH&lt;/span&gt;&lt;br style=&quot;border-color: var(--border-color); font-size: 12px;&quot;&gt;&lt;span style=&quot;font-size: 26px;&quot;&gt;kill&lt;/span&gt;&lt;br&gt;&lt;/font&gt;" style="whiteSpace=wrap;html=1;aspect=fixed;fillColor=#FF9933;strokeColor=#b85450;rounded=1;movable=1;" vertex="1" parent="1">
          <mxGeometry x="165" y="139" width="80" height="80" as="geometry" />
        </mxCell>
        <mxCell id="3sPB93pp8kDnpxtO9J0G-79" value="&lt;font style=&quot;&quot;&gt;&lt;span style=&quot;font-size: 24px;&quot;&gt;HIGH&lt;/span&gt;&lt;br&gt;&lt;font style=&quot;font-size: 26px;&quot;&gt;+&lt;/font&gt;&lt;br&gt;&lt;/font&gt;" style="whiteSpace=wrap;html=1;aspect=fixed;fillColor=#4D9900;strokeColor=#b85450;rounded=1;movable=1;" vertex="1" parent="1">
          <mxGeometry x="260" y="140" width="80" height="80" as="geometry" />
        </mxCell>
        <mxCell id="3sPB93pp8kDnpxtO9J0G-80" value="&lt;font style=&quot;font-size: 24px;&quot;&gt;MID&lt;br&gt;+&lt;br&gt;&lt;/font&gt;" style="whiteSpace=wrap;html=1;aspect=fixed;fillColor=#4D9900;strokeColor=#b85450;rounded=1;movable=1;" vertex="1" parent="1">
          <mxGeometry x="260" y="234" width="80" height="80" as="geometry" />
        </mxCell>
        <mxCell id="3sPB93pp8kDnpxtO9J0G-81" value="&lt;font style=&quot;font-size: 24px;&quot;&gt;MID&lt;br&gt;kill&lt;br&gt;&lt;/font&gt;" style="whiteSpace=wrap;html=1;aspect=fixed;fillColor=#FF3333;strokeColor=#b85450;rounded=1;movable=1;" vertex="1" parent="1">
          <mxGeometry x="165" y="234" width="80" height="80" as="geometry" />
        </mxCell>
        <mxCell id="3sPB93pp8kDnpxtO9J0G-82" value="&lt;font style=&quot;font-size: 24px;&quot;&gt;LOW&lt;br&gt;-&lt;br&gt;&lt;/font&gt;" style="whiteSpace=wrap;html=1;aspect=fixed;fillColor=#4D9900;strokeColor=#b85450;rounded=1;movable=1;" vertex="1" parent="1">
          <mxGeometry x="70" y="330" width="80" height="80" as="geometry" />
        </mxCell>
        <mxCell id="3sPB93pp8kDnpxtO9J0G-83" value="&lt;font style=&quot;font-size: 24px;&quot;&gt;LOW&lt;br&gt;kill&lt;br&gt;&lt;/font&gt;" style="whiteSpace=wrap;html=1;aspect=fixed;fillColor=#FF9933;strokeColor=#b85450;rounded=1;movable=1;" vertex="1" parent="1">
          <mxGeometry x="165" y="330" width="80" height="80" as="geometry" />
        </mxCell>
        <mxCell id="3sPB93pp8kDnpxtO9J0G-84" value="&lt;font style=&quot;font-size: 24px;&quot;&gt;LOW&lt;br&gt;+&lt;br&gt;&lt;/font&gt;" style="whiteSpace=wrap;html=1;aspect=fixed;fillColor=#4D9900;strokeColor=#b85450;rounded=1;movable=1;" vertex="1" parent="1">
          <mxGeometry x="735" y="331" width="80" height="80" as="geometry" />
        </mxCell>
        <mxCell id="3sPB93pp8kDnpxtO9J0G-85" value="&lt;font style=&quot;&quot;&gt;&lt;span style=&quot;font-size: 24px;&quot;&gt;HIGH&lt;/span&gt;&lt;br&gt;&lt;font style=&quot;font-size: 26px;&quot;&gt;-&lt;/font&gt;&lt;br&gt;&lt;/font&gt;" style="whiteSpace=wrap;html=1;aspect=fixed;fillColor=#4D9900;strokeColor=#b85450;rounded=1;movable=1;" vertex="1" parent="1">
          <mxGeometry x="545" y="141" width="80" height="80" as="geometry" />
        </mxCell>
        <mxCell id="3sPB93pp8kDnpxtO9J0G-86" value="&lt;font style=&quot;&quot;&gt;&lt;span style=&quot;font-size: 24px;&quot;&gt;HIGH&lt;/span&gt;&lt;br style=&quot;border-color: var(--border-color); font-size: 12px;&quot;&gt;&lt;span style=&quot;font-size: 26px;&quot;&gt;kill&lt;/span&gt;&lt;br&gt;&lt;/font&gt;" style="whiteSpace=wrap;html=1;aspect=fixed;fillColor=#FF9933;strokeColor=#b85450;rounded=1;movable=1;" vertex="1" parent="1">
          <mxGeometry x="640" y="140" width="80" height="80" as="geometry" />
        </mxCell>
        <mxCell id="3sPB93pp8kDnpxtO9J0G-87" value="&lt;font style=&quot;&quot;&gt;&lt;span style=&quot;font-size: 24px;&quot;&gt;HIGH&lt;/span&gt;&lt;br&gt;&lt;font style=&quot;font-size: 26px;&quot;&gt;+&lt;/font&gt;&lt;br&gt;&lt;/font&gt;" style="whiteSpace=wrap;html=1;aspect=fixed;fillColor=#4D9900;strokeColor=#b85450;rounded=1;movable=1;" vertex="1" parent="1">
          <mxGeometry x="735" y="141" width="80" height="80" as="geometry" />
        </mxCell>
        <mxCell id="3sPB93pp8kDnpxtO9J0G-88" value="&lt;font style=&quot;font-size: 24px;&quot;&gt;MID&lt;br&gt;+&lt;br&gt;&lt;/font&gt;" style="whiteSpace=wrap;html=1;aspect=fixed;fillColor=#4D9900;strokeColor=#b85450;rounded=1;movable=1;" vertex="1" parent="1">
          <mxGeometry x="735" y="235" width="80" height="80" as="geometry" />
        </mxCell>
        <mxCell id="3sPB93pp8kDnpxtO9J0G-89" value="&lt;font style=&quot;font-size: 24px;&quot;&gt;MID&lt;br&gt;kill&lt;br&gt;&lt;/font&gt;" style="whiteSpace=wrap;html=1;aspect=fixed;fillColor=#FF3333;strokeColor=#b85450;rounded=1;movable=1;" vertex="1" parent="1">
          <mxGeometry x="640" y="235" width="80" height="80" as="geometry" />
        </mxCell>
        <mxCell id="3sPB93pp8kDnpxtO9J0G-90" value="&lt;font style=&quot;font-size: 24px;&quot;&gt;LOW&lt;br&gt;-&lt;br&gt;&lt;/font&gt;" style="whiteSpace=wrap;html=1;aspect=fixed;fillColor=#4D9900;strokeColor=#b85450;rounded=1;movable=1;" vertex="1" parent="1">
          <mxGeometry x="545" y="331" width="80" height="80" as="geometry" />
        </mxCell>
        <mxCell id="3sPB93pp8kDnpxtO9J0G-91" value="&lt;font style=&quot;font-size: 24px;&quot;&gt;LOW&lt;br&gt;kill&lt;br&gt;&lt;/font&gt;" style="whiteSpace=wrap;html=1;aspect=fixed;fillColor=#FF9933;strokeColor=#b85450;rounded=1;movable=1;" vertex="1" parent="1">
          <mxGeometry x="640" y="331" width="80" height="80" as="geometry" />
        </mxCell>
        <mxCell id="3sPB93pp8kDnpxtO9J0G-92" value="&lt;font style=&quot;font-size: 24px;&quot;&gt;MID&lt;br&gt;-&lt;br&gt;&lt;/font&gt;" style="whiteSpace=wrap;html=1;aspect=fixed;fillColor=#4D9900;strokeColor=#b85450;rounded=1;movable=1;" vertex="1" parent="1">
          <mxGeometry x="545" y="234" width="80" height="80" as="geometry" />
        </mxCell>
        <mxCell id="3sPB93pp8kDnpxtO9J0G-93" value="&lt;font style=&quot;font-size: 19px;&quot;&gt;FLTR&lt;br&gt;-&lt;/font&gt;" style="ellipse;whiteSpace=wrap;html=1;aspect=fixed;fillColor=#FFD966;" vertex="1" parent="1">
          <mxGeometry x="70" y="50" width="80" height="80" as="geometry" />
        </mxCell>
        <mxCell id="3sPB93pp8kDnpxtO9J0G-94" value="&lt;font style=&quot;font-size: 20px;&quot;&gt;FLTR&lt;br&gt;&lt;/font&gt;" style="ellipse;whiteSpace=wrap;html=1;aspect=fixed;fillColor=#60a917;fontColor=#ffffff;strokeColor=#2D7600;" vertex="1" parent="1">
          <mxGeometry x="160" y="50" width="80" height="80" as="geometry" />
        </mxCell>
        <mxCell id="3sPB93pp8kDnpxtO9J0G-95" value="&lt;font style=&quot;font-size: 21px;&quot;&gt;FLTR&lt;br style=&quot;border-color: var(--border-color);&quot;&gt;+&lt;br&gt;&lt;/font&gt;" style="ellipse;whiteSpace=wrap;html=1;aspect=fixed;fillColor=#FFD966;" vertex="1" parent="1">
          <mxGeometry x="260" y="50" width="80" height="80" as="geometry" />
        </mxCell>
        <mxCell id="3sPB93pp8kDnpxtO9J0G-100" value="&lt;font style=&quot;font-size: 19px;&quot;&gt;FLTR&lt;br&gt;-&lt;/font&gt;" style="ellipse;whiteSpace=wrap;html=1;aspect=fixed;fillColor=#FFD966;" vertex="1" parent="1">
          <mxGeometry x="545" y="50" width="80" height="80" as="geometry" />
        </mxCell>
        <mxCell id="3sPB93pp8kDnpxtO9J0G-101" value="&lt;font style=&quot;font-size: 20px;&quot;&gt;FLTR&lt;br&gt;&lt;/font&gt;" style="ellipse;whiteSpace=wrap;html=1;aspect=fixed;fillColor=#60a917;fontColor=#ffffff;strokeColor=#2D7600;" vertex="1" parent="1">
          <mxGeometry x="635" y="50" width="80" height="80" as="geometry" />
        </mxCell>
        <mxCell id="3sPB93pp8kDnpxtO9J0G-102" value="&lt;font style=&quot;font-size: 21px;&quot;&gt;FLTR&lt;br style=&quot;border-color: var(--border-color);&quot;&gt;+&lt;br&gt;&lt;/font&gt;" style="ellipse;whiteSpace=wrap;html=1;aspect=fixed;fillColor=#FFD966;" vertex="1" parent="1">
          <mxGeometry x="735" y="50" width="80" height="80" as="geometry" />
        </mxCell>
        <mxCell id="3sPB93pp8kDnpxtO9J0G-105" value="" style="rounded=0;whiteSpace=wrap;html=1;fillColor=#323232;" vertex="1" parent="1">
          <mxGeometry x="43" y="-5" width="897" height="45" as="geometry" />
        </mxCell>
        <mxCell id="3sPB93pp8kDnpxtO9J0G-106" value="" style="ellipse;whiteSpace=wrap;html=1;aspect=fixed;fillColor=#FFB570;" vertex="1" parent="1">
          <mxGeometry x="830" y="710" width="80" height="80" as="geometry" />
        </mxCell>
        <mxCell id="3sPB93pp8kDnpxtO9J0G-107" value="" style="sketch=0;outlineConnect=0;fontColor=#232F3E;gradientColor=none;fillColor=#232F3D;strokeColor=none;dashed=0;verticalLabelPosition=bottom;verticalAlign=top;align=center;html=1;fontSize=12;fontStyle=0;aspect=fixed;pointerEvents=1;shape=mxgraph.aws4.folders;" vertex="1" parent="1">
          <mxGeometry x="850" y="732.25" width="39" height="35.5" as="geometry" />
        </mxCell>
      </root>
    </mxGraphModel>
  </diagram>
</mxfile>
